<?xml version="1.0" encoding="utf-8"?>
<!-- Generator: Adobe Illustrator 21.0.2, SVG Export Plug-In . SVG Version: 6.00 Build 0)  -->
<svg version="1.1" id="Layer_1" xmlns="http://www.w3.org/2000/svg" xmlns:xlink="http://www.w3.org/1999/xlink" x="0px" y="0px"
	 viewBox="0 0 250 250" style="enable-background:new 0 0 250 250;" xml:space="preserve">
<style type="text/css">
	.st0{fill:#055864;}
	.st1{fill:#FF891F;}
</style>
<g>
	<path class="st0" d="M145.2,172c0,0,2.3-24.4,30.7-26.5c-31.8-11-48,23-48,23s-24.3-38.8-54.5-11.9c24.4-4.3,31.9,9.2,31.9,9.2
		s-52.6-17.3-45.8,37.9c18-50.4,58.7-17.7,63.4-6.4c4.6,11.3-3.3,26-1.7,29.5c1.6,3.4,14,3.3,15.3,1.2c1.3-2-3.7-27.5,1.3-35.8
		c5-8.4,52.7-38.8,48.5,9.6C208.5,149.2,145.2,172,145.2,172z"/>
	<path class="st1" d="M125,83.7c18.3,0,33.5,13.1,36.7,30.4c0.4-2.2,0.7-4.6,0.7-6.9c0-20.6-16.7-37.4-37.4-37.4
		c-20.6,0-37.4,16.7-37.4,37.4c0,2.4,0.2,4.7,0.7,6.9C91.5,96.8,106.7,83.7,125,83.7z"/>
	<path class="st1" d="M205.2,93.6c-0.5,0-1.1,0-1.6,0c4.2-14.1-0.1-30-12.2-39.8c-11.2-9.1-26.1-10.6-38.5-5.2c0,0,0,0,0,0
		c0-15.4-12.5-27.8-27.8-27.8c-15.4,0-27.8,12.5-27.8,27.8c0,0,0,0,0,0c-12.4-5.4-27.3-3.9-38.5,5.2c-12.1,9.8-16.5,25.7-12.2,39.8
		c-0.5,0-1.1,0-1.6,0C22.7,94.3,5.3,112.7,6,134.8c0.7,22.1,19.1,39.5,41.2,38.8c2.5-0.1,5-0.4,7.4-0.9
		c-18.7-2.9-33.2-18.7-33.8-38.3c-0.5-17.7,10.5-33,26.2-38.8c1.4,3.8,3.4,7.4,6.1,10.8c1.5,1.8,3.1,3.5,4.9,5
		c-8.4-15.5-4.9-35.3,9.3-46.8C81.6,53,101.6,53.6,115.1,65c-1.1-2-2.4-4-3.9-5.8c-3.5-4.3-7.7-7.6-12.3-9.9
		C102.7,38.7,113,31,125,31c12,0,22.2,7.6,26.1,18.3c-4.6,2.3-8.9,5.6-12.3,9.9c-1.5,1.8-2.8,3.8-3.9,5.8
		c13.4-11.4,33.5-12,47.7-0.5c14.2,11.5,17.7,31.3,9.3,46.8c1.7-1.5,3.4-3.1,4.9-5c2.7-3.3,4.7-7,6.1-10.8
		c15.7,5.8,26.8,21.1,26.2,38.8c-0.6,19.6-15.1,35.4-33.8,38.3c2.4,0.5,4.9,0.8,7.4,0.9c22.1,0.7,40.6-16.7,41.2-38.8
		C244.7,112.7,227.3,94.3,205.2,93.6z"/>
</g>
<g>
</g>
<g>
</g>
<g>
</g>
<g>
</g>
<g>
</g>
<g>
</g>
<g>
</g>
<g>
</g>
<g>
</g>
<g>
</g>
<g>
</g>
<g>
</g>
<g>
</g>
<g>
</g>
<g>
</g>
</svg>
