<?xml version="1.0" encoding="utf-8"?>
<!-- Generator: Adobe Illustrator 21.0.2, SVG Export Plug-In . SVG Version: 6.00 Build 0)  -->
<svg version="1.1" id="Layer_1" xmlns="http://www.w3.org/2000/svg" xmlns:xlink="http://www.w3.org/1999/xlink" x="0px" y="0px"
	 viewBox="0 0 250 250" style="enable-background:new 0 0 250 250;" xml:space="preserve">
<style type="text/css">
	.st0{fill:#055864;}
	.st1{fill:#FF891F;}
</style>
<g>
	<path class="st0" d="M220.6,189.2l0.7-1.1c12.2-18.6,18.6-40.2,18.6-62.6c0-30.6-11.9-59.3-33.5-80.9C184.9,22.9,156.1,11,125.5,11
		c-30.6,0-59.3,11.9-80.9,33.5C23,66.1,11.1,94.9,11.1,125.5c0,30.6,11.9,59.3,33.5,80.9s50.4,33.5,80.9,33.5
		c22.4,0,44.1-6.4,62.6-18.6l1.1-0.7l18.5,18.5c1.1,1.1,3,1.1,4.1,0l27.3-27.3c1.1-1.1,1.1-3,0-4.1L220.6,189.2z M183.3,217.5
		c-17.3,10.9-37.3,16.7-57.8,16.7c-59.9,0-108.7-48.8-108.7-108.7c0-59.9,48.8-108.7,108.7-108.7s108.7,48.8,108.7,108.7
		c0,20.5-5.8,40.5-16.7,57.8l-1.1,1.7l-10.6-10.6l0.7-1.1c8.6-14.5,13.1-31,13.1-47.8c0-51.9-42.2-94.1-94.1-94.1
		s-94.1,42.2-94.1,94.1c0,51.9,42.2,94.1,94.1,94.1c16.8,0,33.4-4.5,47.8-13.1l1.1-0.7l10.6,10.6L183.3,217.5z M125.5,213.7
		c-48.7,0-88.3-39.6-88.3-88.3c0-48.7,39.6-88.3,88.3-88.3c48.7,0,88.3,39.6,88.3,88.3C213.8,174.1,174.2,213.7,125.5,213.7z
		 M209.8,233l-30.4-30.4l1.5-1.1c2.7-2,5.4-4.1,7.8-6.4l1.2-1.1l29.4,29.4L209.8,233z M223.5,219.3L194,189.9l1.1-1.2
		c2.2-2.4,4.4-5.1,6.4-7.8l1.1-1.5l30.4,30.4L223.5,219.3z"/>
	<path class="st1" d="M83.8,62.7c-0.7,0-1.5,0.3-2,0.8c-1.1,1.1-1.1,3,0,4.1l5.7,5.7L81.7,79c-1.1,1.1-1.1,3,0,4.1
		c1.1,1.1,3,1.1,4.1,0l5.7-5.7l1.2,1.2c0,0,4.4,4.4,4.5,4.5c1.1,1.1,3,1.1,4.1,0c1.1-1.1,1.1-3,0-4.1l-5.7-5.7l5.7-5.7
		c1.1-1.1,1.1-3,0-4.1c-1.1-1.1-3-1.1-4.1,0l-5.7,5.7l-5.7-5.7C85.3,63,84.5,62.7,83.8,62.7z"/>
	<path class="st1" d="M117.4,62.7c-0.7,0-1.5,0.3-2,0.8c-1.1,1.1-1.1,3,0,4.1l5.7,5.7l-5.7,5.7c-1.1,1.1-1.1,3,0,4.1
		c1.1,1.1,3,1.1,4.1,0l5.7-5.7l1.2,1.2c0,0,4.4,4.4,4.5,4.5c1.1,1.1,3,1.1,4.1,0c1.1-1.1,1.1-3,0-4.1l-5.7-5.7l5.7-5.7
		c1.1-1.1,1.1-3,0-4.1c-1.1-1.1-3-1.1-4.1,0l-5.7,5.7l-5.7-5.7C118.8,63,118.1,62.7,117.4,62.7z"/>
	<path class="st1" d="M83.8,96.3c-0.7,0-1.5,0.3-2,0.8c-1.1,1.1-1.1,3,0,4.1l5.7,5.7l-5.7,5.7c-0.5,0.5-0.8,1.3-0.8,2s0.3,1.5,0.8,2
		v0c1.1,1.1,3,1.1,4.1,0l5.7-5.7l1.2,1.2c0,0,4.4,4.4,4.5,4.5c0.5,0.5,1.3,0.8,2.1,0.8c0,0,0,0,0,0c0.8,0,1.5-0.3,2-0.8
		c1.1-1.1,1.1-3,0-4.1l-5.7-5.7l5.7-5.7c1.1-1.1,1.1-3,0-4.1c-1.1-1.1-3-1.1-4.1,0l-5.7,5.7l-5.7-5.7C85.3,96.6,84.5,96.3,83.8,96.3
		z"/>
	<path class="st1" d="M125.1,111l1.2,1.2c0,0,4.4,4.4,4.5,4.5c0.5,0.5,1.3,0.8,2.1,0.8c0,0,0,0,0,0c0.8,0,1.5-0.3,2-0.8
		c1.1-1.1,1.1-3,0-4.1l-5.7-5.7l5.7-5.7c1.1-1.1,1.1-3,0-4.1c-1.1-1.1-3-1.1-4.1,0l-5.7,5.7l-5.7-5.7c-1.1-1.1-3-1.1-4.1,0
		c-1.1,1.1-1.1,3,0,4.1l5.7,5.7l-5.7,5.7c-0.5,0.5-0.8,1.3-0.8,2s0.3,1.5,0.8,2v0c1.1,1.1,3,1.1,4.1,0L125.1,111z"/>
	<path class="st1" d="M151.4,96.3c-0.7,0-1.5,0.3-2,0.8c-1.1,1.1-1.1,3,0,4.1c0,0,15.3,15.3,15.4,15.4l0,0c0.5,0.5,1.3,0.8,2,0.8
		c0,0,0,0,0,0c0.8,0,1.5-0.3,2-0.8c1.1-1.1,1.1-3,0-4.1l-15.4-15.4C152.9,96.6,152.1,96.3,151.4,96.3z"/>
	<path class="st1" d="M149.3,83.1c1.1,1.1,3,1.1,4.1,0l5.7-5.7l5.7,5.7c0.5,0.5,1.3,0.8,2,0.8c0.8,0,1.5-0.3,2.1-0.8
		c1.1-1.1,1.1-3,0-4.1l-5.7-5.7l5.7-5.7c1.1-1.1,1.1-3,0-4.1c-1.1-1.1-3-1.1-4.1,0l-5.7,5.7l-5.7-5.7c-1.1-1.1-3-1.1-4.1,0
		c-1.1,1.1-1.1,3,0,4.1l5.7,5.7l-5.7,5.7c-0.5,0.5-0.8,1.3-0.8,2C148.5,81.8,148.8,82.5,149.3,83.1L149.3,83.1z"/>
	<path class="st1" d="M194,120.1c-1.6-1.6-4.8-0.4-6.5,0.5c-4.1,2.1-7.9,4.9-11.7,7.8c-14.3,11-27.8,22.6-43.6,36.7
		c-2.7,2.4-5.7,5-7.4,8.3c-1.8,3.3-1.9,7.1-0.2,9.6l1,1.5l-1.6,0.8c-5.4,2.8-12,2.6-16.9-0.5c-5.2-3.3-7.9-9.7-6.7-15.5
		c0.8-3.8,3-6.9,5.2-9.9c1.6-2.1,3-4.2,4-6.4c2.2-5.1,1.2-11.4-2.3-15.7c-3.6-4.3-9.6-6.3-15-5.1c-4.9,1.1-9,4.5-12,7.4
		c-1.5,1.5-3,3.1-3.1,4.8c-0.1,0.7,0.2,1.4,0.7,1.9c0.6,0.6,1.3,0.9,2.1,0.9c1.6,0,2.9-1.5,4.3-3c0.4-0.5,0.9-0.9,1.3-1.3l0.1-0.1
		c2.3-2.2,4.9-4.7,8.6-5.2c0.4-0.1,0.8-0.1,1.2-0.1c2.3,0,4.6,0.9,6.5,2.7c2.2,2,3.3,4.8,3.1,7.5c-0.3,3.7-2.6,6.5-4.8,9.2
		c-0.7,0.9-1.4,1.7-2,2.5c-5.6,7.8-4.9,19.5,1.5,26.6c6.4,7.1,17.9,9.1,26.3,4.4l0.2-0.1c0.7-0.4,1.6-0.9,2.6-1
		c1.1-0.1,2.1,0.2,2.9,0.5l0.2,0.1c2.1,0.7,5.2,1.4,8,0.4c2.8-1,5.1-3.5,7-5.6c15.5-17,28.6-32.5,40.2-47.5
		c2.7-3.6,5.1-6.8,6.9-10.5C195.5,123.7,195.6,121.6,194,120.1z M181,135.8c-3.9,5.1-9.1,11.5-15.3,18.9c-11.8,14-23.5,27-25,28.5
		c-1.3,1.3-2.9,1.9-4.7,1.9c-1.8,0-3.4-0.7-4.7-1.9c-1.3-1.3-1.9-2.9-1.9-4.7c0-1.8,0.7-3.4,1.9-4.7c1.5-1.5,14.4-13.2,28.5-25
		c7.4-6.3,13.8-11.4,18.9-15.3l9.7-7.4L181,135.8z"/>
	<circle class="st1" cx="67" cy="157.2" r="2.9"/>
</g>
<g>
</g>
<g>
</g>
<g>
</g>
<g>
</g>
<g>
</g>
<g>
</g>
<g>
</g>
<g>
</g>
<g>
</g>
<g>
</g>
<g>
</g>
<g>
</g>
<g>
</g>
<g>
</g>
<g>
</g>
</svg>
