<?xml version="1.0" encoding="utf-8"?>
<!-- Generator: Adobe Illustrator 21.0.2, SVG Export Plug-In . SVG Version: 6.00 Build 0)  -->
<svg version="1.1" id="Layer_1" xmlns="http://www.w3.org/2000/svg" xmlns:xlink="http://www.w3.org/1999/xlink" x="0px" y="0px"
	 viewBox="0 0 250 250" style="enable-background:new 0 0 250 250;" xml:space="preserve">
<style type="text/css">
	.st0{fill:#FFFFFF;}
	.st1{fill:#055864;}
	.st2{fill:#FF9D3A;}
</style>
<path class="st0" d="M547.4,194.4L547.4,194.4L547.4,194.4z"/>
<g>
	<path class="st1" d="M56.4,197.6c0.7,0,1.4,0.3,2.2,0.8c4,2.8,8.1,5.7,12.7,8.7c0.9,0.6,2.2,1.9,1.2,4.2c-0.3,0.7-0.6,1.4-0.9,2
		c-0.3,0.5-0.5,1.1-0.7,1.6l-3.8,8.6c-2.1,4.7-4.1,9.4-6.2,14.1c-0.9,2.1-1.5,3.6-0.8,5.3c0.8,2,2.3,3,4.4,3c0,0,0,0,0.1,0
		c1.9,0,3.6-1.2,4.5-3.3c2.1-4.9,4.2-9.7,6.4-14.6l4.8-10.9c2.5-5.7,5-11.4,7.5-17.1c0.7-1.7,1.5-3.3,2.3-5.1l2.2-4.8l2,1.6
		c6.7,5.5,14,9.8,22.3,13.3l4.7,2l-4.9,1.6c-0.9,0.3-1.7,0.3-2.3,0.3l-1.1-0.1c-3-0.2-6-0.3-9-0.5c-2.3-0.1-3.7,0.6-4.7,2.3
		c-1,1.7-0.9,3.4,0.2,5.1c0.9,1.3,2.3,1.9,4.8,2.2c10.4,0.8,19.1,0.5,27.2-1.2c6.5-1.4,12.2-3.1,17.3-5.2
		c8.1-3.5,15.7-8.2,22.6-14.1c10.4-8.9,18.4-19.8,23.8-32.2c3.7-8.6,5.9-17.8,6.7-27.4c0.9-11.8-0.4-23.3-4-34.1
		c-2.8-8.7-6.9-16.8-12.3-24c-0.9-1.2-1.5-3,0.5-4.8c3.4-3.1,6.8-6.3,10.1-9.4l8-7.5c0.3-0.2,0.6-0.5,0.9-0.9c1.5-1.4,3.3-3.2,4.6-4
		c1.6-1.1,3-1,4.4-0.8c4.1,0.5,7.8-2.7,9.2-5.9c0.5-1.2,0.8-2.5,0.8-3.8c0-3.2-1.6-6.4-4.2-8.5c-3.2-2.4-7.9-2.8-11.2-0.7
		c-3.2,2-5.2,5.8-5,9.5c0.1,1.7-0.4,3-1.7,4.2c-8.7,8.1-15.8,14.8-22.2,20.9c-1.5,1.4-3,1.4-4.5,0c-3.1-2.8-5.7-5.1-8.2-7.2
		c-1-0.8-2.2-1.2-3.5-1c-1.2,0.1-2.3,0.7-3,1.6c-0.8,1.1-1.2,2.4-1,3.7c0.2,1.3,0.8,2.4,1.8,3.1c12.7,9.5,21.8,22,27,37
		c0.2,0.6,0.4,1.2,0.6,2c0.1,0.3,0.2,0.7,0.3,1.1l1.4,4.9l-5.7-3.6c-0.8-0.5-1.6-1-2.3-1.5c-7.9-4.9-16.5-8.7-25.6-11.2
		c-7.3-2-15.2-3.2-23.5-3.5c-7.5-0.2-14.7,0.4-21.5,1.8c-4.7,1-9.5,2.5-14.1,3.9l-1.7,0.5c-2.4,0.7-4.6,1.7-6.7,2.9
		c-1.9,1.1-2.7,4-1.6,6c1.3,2.4,3.9,3.2,6.5,2.1c10.5-4.8,21.8-7.4,33.7-7.8c12-0.3,23.7,1.6,34.7,5.9c10.4,4,19.9,9.9,28.2,17.5
		c0.4,0.4,1.3,1.2,1.4,2.4c0.2,4.7,0.2,9.8-1.1,14.9l-0.7,2.7l-2.3-1.6c-6.8-4.8-12.7-8.1-18.5-10.4c-5.7-2.3-10.1-3.8-14.3-4.9
		c-4.2-1.1-8.8-2-13.6-2.5c-10.2-1.2-21.6-0.5-32.9,1.8c-5.6,1.1-11.4,3.1-18.3,6.1c-2.8,1.2-3.9,3.6-2.9,6.3
		c0.4,1.1,1.3,2.1,2.5,2.6c1.2,0.5,2.6,0.5,3.7,0c6.2-2.9,13.1-5.1,20.3-6.5c16.5-3.1,33.3-1.3,50,5.3c2.1,0.8,4.2,1.7,6.4,2.8
		c4.9,2.2,9.8,5.4,15.5,9.9c1.4,1.1,1.7,2.5,1,4.1c-0.4,0.8-0.7,1.6-1,2.3c-0.5,1.2-1,2.3-1.6,3.5l-0.1,0.2l-1.7,3.2l-2.3,4
		l-2.4,3.6l0,0.1l-1,1.3c-1,1.2-1.9,2.4-2.9,3.6c-5.9,7-12.8,12.9-20.5,17.4l-0.6,0.4c-1.3,0.8-2.8,1.7-4.5,1.8
		c-8.6,0.7-17.1-0.4-25.4-3.1c-8.7-2.8-16.5-7.2-23.3-12.9c-14.6-12.3-23-28.1-25-47c-1.2-11.3,0.5-22.7,5.1-33.7
		c3.8-9.3,9.6-17.5,17.1-24.5c4.2-3.9,9.1-7.3,15.8-11.1c2.2-1.3,2.9-3.9,1.6-6.4c-1.1-2-3.9-2.9-6-1.8c-2.1,1.1-4.4,2.3-6.8,3.9
		c-8.9,5.6-16.6,13.1-22.9,22.3c-6.7,9.9-11,21-12.8,33c-1.5,10.6-1,21.2,1.7,31.4c1.9,7.4,4.7,14.1,8.3,20c1.6,2.6,3.5,5.2,5.3,7.7
		c0.6,0.9,1.3,1.7,1.9,2.6c0.6,0.9,1.6,2.3,0.6,4.5c-1.4,3-2.8,6.2-4.1,9.3l-0.9,2.1c-0.4,1-1.1,1.7-1.9,1.9
		c-0.9,0.3-1.7,0.1-2.7-0.5c-0.7-0.5-1.4-0.9-2.1-1.4c-1-0.7-2.1-1.3-3.2-2.1c-9.5-6.8-17.2-15.2-22.9-25.2
		c-5.5-9.7-8.8-20.3-9.9-31.5c-1-10.5,0.1-21,3.3-31.1c2.7-8.5,6.7-16.3,12.1-23.2C64.4,67,81.1,56.8,101.3,53.3
		c6.7-1.2,13.8-1.4,21-0.6c7.7,0.8,15.1,2.7,22,5.6c2.4,1,5.3,0,6.3-2.1l2.6-6c3.2-7.3,6.4-14.6,9.7-21.9l0.1-0.1
		c0.7-1.6,1.5-3.5,4.4-4.3c4.2-1.2,7-5.3,6.8-9.9c-0.2-4.7-3.2-8.4-7.7-9.5c-4.2-1-7.7,0.1-10.4,3.5c-2.6,3.2-3,6.8-1.2,10.7
		c0.5,1.1,1.1,2.9,0,4.9c-1.2,2.2-2.2,4.6-3.2,7c-0.5,1.2-1,2.3-1.5,3.4c-1.7,3.8-3.4,7.5-5,11.3c-0.8,1.8-2.2,2.4-4.1,1.8
		c-6.7-2.3-14.2-3.7-22-4.1c-12.2-0.7-24.2,1.1-35.7,5.5c-11.1,4.2-21.1,10.5-29.8,18.8c-8.4,8-15,17.5-19.8,28.1
		c-2.3,5.2-4.2,11.1-5.5,17.4c-1.3,6.3-2,12.7-1.8,18.9c0,1.4,0.1,2.8,0.2,4.2C27,142,28,148,29.5,153.7c0.9,3.2,1.9,6.4,3.2,9.4
		c4,10,9.1,18.2,15.6,25.1l1.3,1.3l-2.8,2.9L35.6,203l-3.8,3.4l0,0l-3.5,3.7c-1.3,0.9-2,2.2-2,3.7c0,2.2,1.6,4,3.9,4.4
		c1.1,0.2,2.8,0.3,5.1-1.9c3.8-3.6,7.6-7.2,11.3-10.7c2.4-2.3,4.9-4.6,7.3-6.9C54.7,198,55.5,197.6,56.4,197.6z"/>
	<path class="st0" d="M188.6,129.1L188.6,129.1L188.6,129.1z"/>
	<path class="st0" d="M188.4,77.1L188.4,77.1L188.4,77.1z"/>
	<g>
		<path class="st2" d="M71.5,206.8c1.6,1,3.2,2.1,4.8,3.2c0.7,0.5,1.4,0.9,2.1,1.4c1.1,0.7,2.3,1.4,3.4,2.1l3.8-8.6
			c-1.1-0.7-2.3-1.3-3.4-2c-15-8.9-28.8-20.6-37.2-36.1c-9.8-18.2-11.5-40.4-5.3-60c2.7-8.5,6.7-16.3,12.1-23.2
			c12.8-16.6,29.5-26.7,49.7-30.2c6.7-1.2,13.8-1.4,21-0.6c7.7,0.8,15.1,2.7,22,5.6c1.4,0.6,3.1,0.6,4.4-0.1c1.7-0.9,2.5-3,2.1-4.8
			c-0.5-2.4-2.8-2.9-4.6-4c-1.1-0.6-2.2-1.1-3.4-1.6c-0.6-0.2-1.2-0.5-1.8-0.8c-6.7-2.3-14.1-3.7-22-4.1
			c-12.2-0.7-24.2,1.1-35.7,5.5c-11.1,4.2-21.1,10.5-29.8,18.8c-8.4,8-15,17.5-19.8,28.1c-2.3,5.2-4.2,11.1-5.5,17.4
			c-3.7,17.4-1.6,36.1,5.5,52.6C41.8,183.9,54.8,195.9,71.5,206.8z"/>
		<path class="st2" d="M103.2,208.2c-1.9,0-3.2,0.7-4.1,2.3c-1,1.7-0.9,3.4,0.2,5.1c0.9,1.3,2.3,1.9,4.8,2.2
			c10.4,0.8,19.1,0.5,27.2-1.2c6.5-1.4,12.2-3.1,17.3-5.2c8.1-3.5,15.7-8.2,22.6-14.1c10.4-8.9,18.4-19.8,23.8-32.2
			c3.7-8.6,5.9-17.8,6.7-27.4c0.9-11.8-0.4-23.3-4-34.1c-2.8-8.7-6.9-16.8-12.3-24c-0.2-0.3-5-7.2-10.4-12c-3.1-2.7-5.6-5-8.1-7
			c-1-0.8-2.2-1.2-3.5-1c-1.2,0.1-2.3,0.7-3,1.6c-0.8,1.1-1.2,2.4-1,3.7c0.2,1.3,0.8,2.4,1.8,3.1c12.7,9.5,21.8,22,27,37
			c0.2,0.6,0.4,1.2,0.6,2c0.1,0.3,0.2,0.7,0.3,1.1l1.4,4.9l-5.7-3.6c-0.8-0.5-1.6-1-2.3-1.5c-7.9-4.9-16.5-8.7-25.6-11.2
			c-7.3-2-15.2-3.2-23.5-3.5c-7.5-0.2-14.7,0.4-21.5,1.8c-4.7,1-9.5,2.5-14.1,3.9l-1.7,0.5c-2.4,0.7-4.6,1.7-6.7,2.9
			c-1.9,1.1-2.7,4-1.6,6c1.3,2.4,3.9,3.2,6.5,2.1c10.5-4.8,21.8-7.4,33.7-7.8c12-0.4,23.7,1.6,34.7,5.9c10.4,4,19.9,9.9,28.2,17.5
			c0.4,0.4,1.3,1.2,1.4,2.4c0.2,4.7,0.2,9.8-1.1,14.9l-0.7,2.7l-2.3-1.6c-6.8-4.8-12.7-8.1-18.5-10.4c-5.7-2.3-10.1-3.8-14.3-4.9
			c-4.2-1.1-8.8-2-13.6-2.5c-10.2-1.2-21.6-0.5-32.9,1.8c-5.6,1.1-11.4,3.1-18.3,6.1c-2.8,1.2-3.9,3.6-2.9,6.3
			c0.4,1.1,1.3,2.1,2.5,2.6c1.2,0.5,2.6,0.5,3.7,0c6.2-2.9,13.1-5.1,20.3-6.5c16.5-3.1,33.3-1.3,50,5.3c2.1,0.8,4.2,1.7,6.4,2.8
			c4.9,2.2,9.8,5.4,15.5,9.9c1.4,1.1,1.7,2.5,1,4.1c-0.4,0.8-0.7,1.6-1,2.3c-0.5,1.2-1,2.3-1.6,3.5l-0.1,0.2l-1.7,3.2l-2.3,4
			l-2.4,3.6l0,0.1l-1,1.3c-1,1.2-1.9,2.4-2.9,3.6c-5.9,7-12.8,12.9-20.5,17.4l-0.6,0.4c-1.3,0.8-2.8,1.7-4.5,1.8
			c-8.6,0.7-17.1-0.4-25.4-3.1c-8.7-2.8-16.5-7.2-23.3-12.9c-14.6-12.3-23-28.1-25-47c-1.2-11.3,0.5-22.7,5.1-33.7
			c3.8-9.3,9.6-17.5,17.1-24.5c4.2-3.9,9.1-7.3,15.8-11.1c2.2-1.3,2.9-3.9,1.6-6.4c-1.1-2-3.9-2.9-6-1.8c-2.1,1.1-4.4,2.3-6.8,3.9
			C92.7,69.3,85.1,76.8,78.8,86c-6.7,9.9-11,21-12.8,33c-1.5,10.6-1,21.2,1.7,31.4c1.9,7.4,4.7,14.1,8.3,20c1.6,2.6,3.5,5.2,5.3,7.7
			c0.6,0.9,1.3,1.7,1.9,2.6c0.3,0.4,0.5,0.8,0.7,1.2c1.7,2.6,4,5.1,6.1,6.7c0.4,0.3,0.9,0.6,1.3,0.9c0.9,0.6,1.8,1.3,2.7,2.1
			c6.6,5.4,13.9,9.8,22.2,13.2l4.7,2l-4.9,1.6c-0.9,0.3-1.7,0.3-2.3,0.3l-1.1-0.1c-3-0.2-6-0.3-9-0.5
			C103.6,208.2,103.4,208.2,103.2,208.2z"/>
		<path class="st0" d="M178.2,65.2L178.2,65.2C178.2,65.3,178.2,65.2,178.2,65.2z"/>
	</g>
</g>
<g>
</g>
<g>
</g>
<g>
</g>
<g>
</g>
<g>
</g>
<g>
</g>
<g>
</g>
<g>
</g>
<g>
</g>
<g>
</g>
<g>
</g>
<g>
</g>
<g>
</g>
<g>
</g>
<g>
</g>
</svg>
