<?xml version="1.0" encoding="utf-8"?>
<!-- Generator: Adobe Illustrator 21.0.2, SVG Export Plug-In . SVG Version: 6.00 Build 0)  -->
<svg version="1.1" id="Layer_1" xmlns="http://www.w3.org/2000/svg" xmlns:xlink="http://www.w3.org/1999/xlink" x="0px" y="0px"
	 viewBox="0 0 250 250" style="enable-background:new 0 0 250 250;" xml:space="preserve">
<style type="text/css">
	.st0{fill:#FFFFFF;}
	.st1{fill:#FF9D3A;}
	.st2{fill:#065864;}
</style>
<path class="st0" d="M547.4,194.4L547.4,194.4L547.4,194.4z"/>
<g>
	<path class="st1" d="M128.4,184c-1.6-2.9-3.1-6.1-4.6-9.1c-4.1-8.6-8.4-17.6-15.6-21.9c-5-3-12.9-2.4-19.9-1.9
		c-1,0.1-1.9,0.1-2.8,0.2c-10.5,0.6-20.8,2.3-30.5,4l-2-11.5c9.6-1.7,20.7-3.5,31.8-4.2c0.9-0.1,1.8-0.1,2.7-0.2
		c8.2-0.6,18.5-1.3,26.6,3.5c10.3,6.1,15.6,17.2,20.2,26.9c1.4,3,2.8,5.9,4.2,8.5L128.4,184z"/>
</g>
<path class="st1" d="M101.7,116.4c-0.1-0.2-0.2-0.4-0.4-0.5l0.1,0c-1.2-2.6-2.3-5.2-3.5-8c-2.8-6.8-5.7-13.7-10.1-20.1
	c-6-8.6-14.2-14.1-22.1-19.4c-1.6-1-3.2-2.1-4.7-3.2l-16-11l-6.6,9.6l16,11c1.6,1.1,3.2,2.2,4.9,3.3c7.4,4.9,14.3,9.5,19,16.3
	c3.7,5.4,6.3,11.5,9,18c1.1,2.6,2.2,5.3,3.5,8c0,0.3,0,0.6,0.1,0.9c0.7,1.5,3.7,1.7,6.7,0.4C100.5,120.3,102.4,117.9,101.7,116.4z"
	/>
<path class="st1" d="M132.2,32.7l-11.6-1.2c-3.4,31.3-7.7,66.9-9.1,71l0.2,0.1c0,0,0,0.1,0,0.1c-0.5,1.9,1.6,4.2,4.7,5
	c3.1,0.8,6.1-0.1,6.6-2c0.1-0.3,0.1-0.6,0-0.9C125.7,93.3,131.1,43.1,132.2,32.7z"/>
<path class="st1" d="M217.9,70.8l-17.5,5.4c-14,4.3-26.4,11.7-38.4,18.9L136,110.4c-0.3,0.1-0.6,0.2-0.9,0.4
	c-2.2,1.3-2.8,4.6-1.1,7.4c1.6,2.8,4.7,4,7,2.7c0,0,0.1,0,0.1-0.1l0.1,0.1l27-15.9c11.4-6.8,23.3-13.9,35.9-17.7l17.5-5.4
	L217.9,70.8z"/>
<path class="st1" d="M215.1,160.6c-3.3-3.6-6.6-7.2-8.8-9.6c-14.6-16.4-37.3-17.8-55.6-18.9l-16.9-1l0,0c0,0,0,0,0,0
	c-1.7,0-3,2.6-3,5.9c0,3.3,1.4,5.9,3,5.9c0.2,0,0.4,0,0.6-0.1l15.7,0.9c16.1,0.9,36.1,2.1,47.5,15c2.2,2.5,5.6,6.1,8.9,9.8
	c3.3,3.6,6.6,7.2,8.8,9.6l8.7-7.7C221.8,167.8,218.4,164.2,215.1,160.6z"/>
<g>
	<path class="st2" d="M181.2,213.8c-11.1,0-19.9-7.2-28.4-14.1c-10.3-8.3-17-13.2-24.7-10.4c-5.8,2.1-10.6,5.8-15.7,9.6
		c-7.9,6-17,12.7-30,13c-6.4,0.1-12.2-2.2-16.7-6.7c-7.2-7.2-9.7-18.2-9.5-26.1c0.1-7.3-0.3-15.7-4.1-22.5c-3.5-6.2-10-10.9-16.5-15
		c-2-1.3-4.3-2.3-6.8-3.5c-5.5-2.5-11.7-5.3-15.9-11.3c-9.1-12.9-8.1-34.3-4.1-50.1c6.5-25.6,30.2-24.3,47.6-23.4l1.7,0.1
		c6.9,0.4,12.6-5.8,18.1-11.8c0.8-0.9,1.6-1.7,2.3-2.5c7.2-7.7,18.5-17.9,33-18.3l0,0c0.8,0,1.6,0,2.4,0c10.8,0.6,19,6.8,26.2,12.3
		c4.5,3.4,8.7,6.6,13.3,8.5c15.9,6.4,31.5,12.4,48,16c11.9,2.7,23.5,10.6,32.5,22.3c12.1,15.6,17.2,39.9,3.6,56.1
		c-1.2,1.5-2.5,2.9-3.8,4.3c-3.2,3.4-6.2,6.7-7.6,10.5c-1.8,5.1-1.7,11.6-1.5,18.6c0.3,12.6,0.5,26.9-11.7,36
		C203.1,212.8,191.9,213.8,181.2,213.8z M132.5,176.9c10.6,0,19.5,7.2,27.6,13.8c7.3,5.9,14.1,11.5,21.1,11.5c10,0,18-1,24.5-5.8
		c7.4-5.6,7.2-15.3,7-26.5c-0.2-7.7-0.3-15.6,2.2-22.7c2.2-6.1,6.3-10.6,10-14.6c1.2-1.3,2.3-2.5,3.4-3.9
		c9.5-11.4,5.1-29.9-3.9-41.5c-7.4-9.6-16.6-15.9-25.8-18c-17.4-3.9-33.5-10-49.8-16.6c-6.1-2.4-11.1-6.3-16.1-10
		c-6.4-4.9-12.5-9.5-19.7-9.9c-0.5,0-1,0-1.5,0l0,0c-7.7,0.2-15.6,4.8-24.7,14.6c-0.7,0.8-1.5,1.6-2.2,2.4
		c-6.6,7.2-14.9,16.3-27.3,15.6l-1.7-0.1c-19.6-1-31.8-0.6-35.6,14.6c-3.2,12.7-4.6,30.9,2.3,40.5c2.4,3.4,6.7,5.3,11.3,7.4
		c2.7,1.2,5.6,2.5,8.2,4.2c7.8,4.9,15.6,10.6,20.4,19.1c5.3,9.3,5.8,20.1,5.7,28.5c-0.1,6.9,2.3,13.8,6.1,17.6
		c2.3,2.3,5,3.4,8.3,3.3c9.3-0.2,15.8-5.1,23.3-10.7c5.6-4.2,11.3-8.5,18.7-11.2C127,177.4,129.8,176.9,132.5,176.9z"/>
</g>
</svg>
