<?xml version="1.0" encoding="utf-8"?>
<!-- Generator: Adobe Illustrator 21.0.2, SVG Export Plug-In . SVG Version: 6.00 Build 0)  -->
<svg version="1.1" id="Layer_1" xmlns="http://www.w3.org/2000/svg" xmlns:xlink="http://www.w3.org/1999/xlink" x="0px" y="0px"
	 viewBox="0 0 250 250" style="enable-background:new 0 0 250 250;" xml:space="preserve">
<style type="text/css">
	.st0{fill:#065864;}
	.st1{fill:#FF9D3A;}
</style>
<g>
	<path class="st0" d="M232.7,76.8c0-12.4-14.8-22.5-32.9-22.5c-2.3,0-4.5,0.2-6.6,0.5c1-5.7,1.8-10.7,2.8-15.6
		c1.1-2.2,1.8-4.6,1.8-7.1c0-2.5-0.6-4.8-1.7-7c-0.9-2.3-2.4-4.5-4.6-6.5c-11.5-10.2-32.8-10.6-44.6-0.6c-4.9,4.1-7.3,9.1-6.9,15.6
		c0.4,7.7,0.1,15.4,0.1,22.5c-0.6,0-1.3-0.1-1.9-0.1c-3.7-1-7.7-1.5-11.9-1.5c-2.4,0-4.7,0.2-6.9,0.5c-0.6,0-1.2-0.1-1.8-0.1
		c-0.9-6.1,0.9-12.2,0.1-18.2c0.7-1.8,1.1-3.7,1.1-5.6c0-11.4-13-20.7-28.9-20.7c-3.2,0-6.3,0.4-9.2,1.1c-2.8,0.4-5.4,1.4-7.7,2.9
		c-7.2,3.8-11.9,9.9-11.9,16.7c0,2.6,0.7,5.1,2,7.5c1.5,6.1,4.5,12.3,1,18.7c-3.8-1.1-8.1-1.7-12.5-1.7c-5.6,0-11.5,1.1-16.8,3.1
		c-4.9,1.8-9.9,4.3-13.1,8.7c-2.7,3.7-4.7,8.9-3.3,13.5c5,16.3,10.3,32.5,15.4,48.7c5.6,17.7,11.1,35.4,16.7,53
		c2.6,8.1,5.2,16.2,7.9,24.4c0.4-0.2,0.9-0.4,1.3-0.5c-11.2-37.3-22.3-74.6-33.7-112.7c4,1.6,6.7,2.6,9.4,3.7
		c4.8,1.9,10.3,2.9,16.3,2.9c12.5,0,23.4-4.8,29-11.8c6,51.1,11.9,101.1,17.7,151c0.4,0,0.8-0.1,1.3-0.1c-0.1-1.8-0.1-3.5-0.3-5.3
		c-0.9-8.3-1.8-16.5-2.6-24.7c-1.7-16.2-3.2-32.4-4.9-48.6c-2.7-25.7-5.4-51.4-8.3-77.1c0.7-1.9,1.1-3.8,1.1-5.8
		c0-7.7-5.7-14.4-14.3-18.5C66,55.3,69,49,66.5,44c0.5,0.2,0.9,0.4,1.3,0.6c5.3,4.4,13.1,7.2,21.8,7.2c10.2,0,19.2-3.8,24.3-9.5
		c0.1,0.3,0.1,0.6,0.2,0.9c1.2,3.7,0.5,8.3-0.6,12.2c-0.1,0.4-0.4,0.7-0.8,1c-11.6,3.5-19.7,11.4-19.7,20.6c0,1.6,0.3,3.2,0.7,4.7
		c0,0.5,0.1,1,0.1,1.5c1.9,21.2,4,42.3,6,63.5c1.6,16.5,3.1,33,4.7,49.5c0.4-0.1,0.8-0.2,1.2-0.2c-2.7-34.8-5.4-69.5-8.2-105.2
		c19,13.3,37.1,13.3,55.8,0.3c-3.6,44.8-7.2,88.9-10.8,133c2.6-15.7,4.4-31.4,5.9-47.2c3.1-31.2,5.9-62.5,9.1-93.7
		c0.8-2,1.3-4,1.3-6.1c0-7.8-5.9-14.7-14.8-18.7c-0.3-0.5-0.6-1-0.6-1.4c-0.4-4.4-0.2-8.8-0.2-14.2c0.4,0.3,0.9,0.6,1.3,1
		c5.2,5.6,14.1,9.3,24.1,9.3c9,0,17.1-3,22.4-7.6c0.3,4.6-0.2,8.1-2.9,10.7c-12.5,3.2-21.5,11.4-21.5,21c0,1.6,0.3,3.2,0.8,4.8
		c-0.4,4.2-0.8,8.3-1.3,12.4c-2.7,24.1-5.4,48.2-8.1,72.3c-2,18.5-4,37-5.9,55.5c-0.6,5.9-0.8,11.8-1.2,17.7c0.4,0,0.8,0.1,1.2,0.1
		c5.9-50.4,11.8-100.8,17.8-151.8c16.8,15.9,34.5,15.9,54.5,6.1c-12.5,41.8-24.7,82.6-37,123.5c4.7-10.6,8.4-21.6,11.9-32.6
		c10.8-34.1,21.7-68.2,32.2-102.4c0-0.1,0-0.2,0.1-0.3C232.3,80.4,232.7,78.6,232.7,76.8z M77.2,69.7c-0.1,0.6-0.1,1.1,0.1,1.6
		c3,8.4,1.5,14.1-5.7,19.8c-5.2,3.3-12.4,5.3-20.3,5.3c-16,0-29-8.3-29-18.5s13-18.5,29-18.5c7.3,0,13.9,1.7,19,4.5
		c0.8,0.5,1.5,1.1,2.3,1.6c0-0.1,0-0.1,0-0.2C74.5,66.7,76,68.1,77.2,69.7z M89.7,47.8C77,47.8,66.6,41.4,65,33.2
		c-0.1-1.2-0.1-2.4,0-3.8c0.1-0.9,0.3-1.8,0.5-2.6c2.8-7.2,12.5-12.6,24.1-12.6c13.8,0,24.9,7.5,24.9,16.7S103.4,47.8,89.7,47.8z
		 M148.5,65.9c4.3,3.7,6.4,7.9,6.4,12.1c-0.9,9.7-13.5,17.4-28.9,17.4c-16,0-29-8.3-29-18.5c0-1.8,0.4-3.6,1.2-5.3
		c1.4-2.8,3.7-5.4,7-7.5c2.3-1.5,4.7-2.7,7.2-3.6c4.1-1.4,8.7-2.2,13.6-2.2c3.8,0,7.4,0.5,10.7,1.3C141,60.8,145,62.8,148.5,65.9z
		 M168.8,48.8c-13.8,0-24.9-7.5-24.9-16.7s11.2-16.7,24.9-16.7s24.9,7.5,24.9,16.7S182.5,48.8,168.8,48.8z M184.1,61.6
		c3.3-1.3,6.8-2.1,10.6-3c1.6-0.2,3.3-0.3,5-0.3c2.6,0,5.1,0.2,7.5,0.6c4.4,1.4,8.9,2.9,12.9,5.2c2.7,1.6,4.8,3.5,6.3,5.5
		c1.5,2.2,2.3,4.6,2.3,7.2c0,10.2-13,18.5-29,18.5c-13.2,0-24.3-5.7-27.8-13.4C169.7,74.2,174.1,65.7,184.1,61.6z"/>
	<g>
		<path class="st1" d="M168.4,52.7c-15.9,0-28.9-9.4-28.9-21s13-21,28.9-21s29.2,9.4,29.2,21S184.4,52.7,168.4,52.7z M168.8,15.3
			c-13.8,0-24.9,7.4-24.9,16.7s10.8,16.7,24.6,16.7s24.9-7.6,24.9-17S182.5,15.3,168.8,15.3z"/>
	</g>
	<g>
		<path class="st1" d="M89.3,51.7c-15.9,0-28.9-9.3-28.9-20.7s13-20.7,28.9-20.7s29.2,9.3,29.2,20.7S105.2,51.7,89.3,51.7z
			 M89.3,14.3c-13.8,0-24.4,7.5-24.4,16.7s10.7,16.7,24.4,16.7s24.9-7.5,24.9-16.7S103.1,14.3,89.3,14.3z"/>
	</g>
	<g>
		<path class="st1" d="M51,100.4c-18.2,0-33.3-10.1-33.3-22.5S32.8,55.5,51,55.5S84.2,65.6,84.2,78S69.1,100.4,51,100.4z M51,59.5
			c-16,0-28.6,8.3-28.6,18.5S35,96.5,51,96.5s28-8,28-18.2S67,59.5,51,59.5z"/>
	</g>
	<g>
		<path class="st1" d="M200.1,100.4c-18.2,0-33.7-11.2-33.7-23.6c0-12.4,14.8-22.5,32.9-22.5c18.2,0,33.3,10.1,33.3,22.5
			c0,5.7-2.9,13.1-8.1,17C218.4,98.4,211.5,99,200.1,100.4z M199.4,58.3c-16,0-27.3,8.7-28,18.7c-0.7,10.2,12,18.3,28,18.3
			c16,0,29-8.3,29-18.5c0-6.9-5.9-12.4-14.6-15.6C209.5,59.6,204.7,58.3,199.4,58.3z"/>
	</g>
	<g>
		<path class="st1" d="M126.2,100.4c-18.2,0-33.4-11.2-33.4-23.6c0-12.4,14.8-22.5,32.9-22.5c18.2,0,32.9,10.1,32.9,22.5
			C158.6,89.2,144.3,100.4,126.2,100.4z M125.7,58.3c-16,0-29,8.3-29,18.5s13,18.5,29,18.5c16,0,29-8.3,29-18.5
			S141.7,58.3,125.7,58.3z"/>
	</g>
</g>
<g>
</g>
<g>
</g>
<g>
</g>
<g>
</g>
<g>
</g>
<g>
</g>
<g>
</g>
<g>
</g>
<g>
</g>
<g>
</g>
<g>
</g>
<g>
</g>
<g>
</g>
<g>
</g>
<g>
</g>
</svg>
