<?xml version="1.0" encoding="utf-8"?>
<!-- Generator: Adobe Illustrator 21.0.2, SVG Export Plug-In . SVG Version: 6.00 Build 0)  -->
<svg version="1.1" id="Layer_1" xmlns="http://www.w3.org/2000/svg" xmlns:xlink="http://www.w3.org/1999/xlink" x="0px" y="0px"
	 viewBox="0 0 250 250" style="enable-background:new 0 0 250 250;" xml:space="preserve">
<style type="text/css">
	.st0{fill:#FFFFFF;}
	.st1{fill:#FF9D3A;}
	.st2{fill:#065864;}
</style>
<path class="st0" d="M260.4,183.4L260.4,183.4L260.4,183.4z"/>
<path class="st1" d="M49.8,24.5c-1.3-1.1-3-1.5-4.6-1c-3.6,1.1-6.7,3.3-8.9,6.4c0,0-0.1,0-0.1,0c0.1-1.3,0.8-2.5,1.8-3.3
	c0.5-0.3,0.6-1,0.2-1.4c-0.3-0.5-1-0.6-1.4-0.2c-0.7,0.5-1.3,1.1-1.7,1.8c-0.4-0.7-1-1.3-1.7-1.8c-0.5-0.3-1.1-0.2-1.4,0.2
	c-0.3,0.5-0.2,1.1,0.2,1.4c1.1,0.8,1.7,2,1.9,3.3c0,0-0.1,0-0.1,0c-2.2-3-5.3-5.3-8.9-6.4c-1.6-0.5-3.3-0.1-4.6,1
	c-1.3,1.1-1.8,2.8-1.5,4.4l1.6,8.2c0.3,1.5,1.3,2.8,2.7,3.4c0.4,0.2,0.9,0.3,1.3,0.4c-0.1,0.3-0.2,0.5-0.2,0.8
	c-0.3,1.3,0.1,2.7,0.9,3.8c0.9,1.2,2.3,1.9,3.8,1.9h1.1c2,0,3.8-1.3,4.5-3.1l0.4-1.2h0l0.4,1.2c0.5,1.2,1.4,2.2,2.6,2.7
	c0.1,0,0.1,0,0.2,0.1c0.2,0.2,0.8,0.2,1.1,0.3c0.3,0.1,0.6,0.1,0.9,0.1v-0.1h0.9c1.5,0,2.9-0.7,3.8-1.9c0.8-1.1,1.2-2.5,0.9-3.8
	c-0.1-0.3-0.1-0.6-0.2-0.8c0.4-0.1,0.9-0.2,1.3-0.4c1.4-0.6,2.4-1.9,2.7-3.4l1.6-8.2C51.6,27.3,51.1,25.6,49.8,24.5z M24.3,38.7
	c-0.8-0.4-1.4-1.1-1.5-1.9l-1.6-8.2C21,27.6,21.3,26.7,22,26c0.7-0.6,1.7-0.9,2.6-0.6c3.3,1,6.1,3.1,8,5.9c-0.1,0.3-0.2,0.7-0.2,1.1
	v2.8l-5.6,3.3c0,0,0,0,0,0C26,39,25.1,39,24.3,38.7z M32.9,43.6c-0.4,1.1-1.4,1.8-2.6,1.8h-1.1c-0.8,0-1.6-0.4-2.2-1.1
	c-0.5-0.6-0.7-1.4-0.5-2.2c0.1-0.8,0.6-1.4,1.3-1.8c0,0,0,0,0,0l4.6-2.7v2.7c0,0.8,0.3,1.5,0.9,2L32.9,43.6z M36,40.3
	c0,0.4-0.3,0.8-0.8,0.8s-0.8-0.3-0.8-0.8v-7.9c0-0.4,0.3-0.8,0.8-0.8S36,32,36,32.4V40.3z M43.4,44.3c-0.5,0.7-1.3,1.1-2.2,1.1h-1.1
	c-1.1,0-2.2-0.7-2.6-1.8l-0.4-1.2c0.5-0.5,0.9-1.2,0.9-2v-2.7l4.6,2.7c0,0,0,0,0,0c0.7,0.4,1.1,1.1,1.3,1.8
	C44.1,42.9,43.9,43.7,43.4,44.3z M49.3,28.5l-1.6,8.2c-0.2,0.9-0.7,1.6-1.5,1.9c-0.8,0.4-1.7,0.3-2.5-0.1c0,0,0,0,0,0L38,35.2v-2.8
	c0-0.4-0.1-0.7-0.2-1.1c1.9-2.8,4.8-4.9,8-5.9c0.9-0.3,1.9-0.1,2.6,0.6C49.2,26.7,49.5,27.6,49.3,28.5z"/>
<path class="st1" d="M117.1,24.5c-1.3-1.1-3-1.5-4.6-1c-3.6,1.1-6.7,3.3-8.9,6.4c0,0-0.1,0-0.1,0c0.1-1.3,0.8-2.5,1.8-3.3
	c0.5-0.3,0.6-1,0.2-1.4c-0.3-0.5-1-0.6-1.4-0.2c-0.7,0.5-1.3,1.1-1.7,1.8c-0.4-0.7-1-1.3-1.7-1.8c-0.5-0.3-1.1-0.2-1.4,0.2
	c-0.3,0.5-0.2,1.1,0.2,1.4c1.1,0.8,1.7,2,1.9,3.3c0,0-0.1,0-0.1,0c-2.2-3-5.3-5.3-8.9-6.4c-1.6-0.5-3.3-0.1-4.6,1
	c-1.3,1.1-1.8,2.8-1.5,4.4l1.6,8.2c0.3,1.5,1.3,2.8,2.7,3.4c0.4,0.2,0.9,0.3,1.3,0.4c-0.1,0.3-0.2,0.5-0.2,0.8
	c-0.3,1.3,0.1,2.7,0.9,3.8c0.9,1.2,2.3,1.9,3.8,1.9h1.1c2,0,3.8-1.3,4.5-3.1l0.4-1.2h0l0.4,1.2c0.5,1.2,1.4,2.2,2.6,2.7
	c0.1,0,0.1,0,0.2,0.1c0.2,0.2,0.8,0.2,1.1,0.3c0.3,0.1,0.6,0.1,0.9,0.1v-0.1h0.9c1.5,0,2.9-0.7,3.8-1.9c0.8-1.1,1.2-2.5,0.9-3.8
	c-0.1-0.3-0.1-0.6-0.2-0.8c0.4-0.1,0.9-0.2,1.3-0.4c1.4-0.6,2.4-1.9,2.7-3.4l1.6-8.2C118.9,27.3,118.3,25.6,117.1,24.5z M91.6,38.7
	c-0.8-0.4-1.4-1.1-1.5-1.9l-1.6-8.2c-0.2-0.9,0.1-1.9,0.8-2.5c0.7-0.6,1.7-0.9,2.6-0.6c3.3,1,6.1,3.1,8,5.9
	c-0.1,0.3-0.2,0.7-0.2,1.1v2.8l-5.6,3.3c0,0,0,0,0,0C93.3,39,92.4,39,91.6,38.7z M100.2,43.6c-0.4,1.1-1.4,1.8-2.6,1.8h-1.1
	c-0.8,0-1.6-0.4-2.2-1.1c-0.5-0.6-0.7-1.4-0.5-2.2c0.1-0.8,0.6-1.4,1.3-1.8c0,0,0,0,0,0l4.6-2.7v2.7c0,0.8,0.3,1.5,0.9,2L100.2,43.6
	z M103.3,40.3c0,0.4-0.3,0.8-0.8,0.8c-0.4,0-0.8-0.3-0.8-0.8v-7.9c0-0.4,0.3-0.8,0.8-0.8c0.4,0,0.8,0.3,0.8,0.8V40.3z M110.7,44.3
	c-0.5,0.7-1.3,1.1-2.2,1.1h-1.1c-1.1,0-2.2-0.7-2.6-1.8l-0.4-1.2c0.5-0.5,0.9-1.2,0.9-2v-2.7l4.6,2.7c0,0,0,0,0,0
	c0.7,0.4,1.1,1.1,1.3,1.8C111.4,42.9,111.2,43.7,110.7,44.3z M116.6,28.5l-1.6,8.2c-0.2,0.9-0.7,1.6-1.5,1.9
	c-0.8,0.4-1.7,0.3-2.5-0.1c0,0,0,0,0,0l-5.6-3.3v-2.8c0-0.4-0.1-0.7-0.2-1.1c1.9-2.8,4.8-4.9,8-5.9c0.9-0.3,1.9-0.1,2.6,0.6
	C116.4,26.7,116.8,27.6,116.6,28.5z"/>
<path class="st1" d="M83.2,57.8c-1.3-1.1-3-1.5-4.6-1c-3.6,1.1-6.7,3.3-8.9,6.4c0,0-0.1,0-0.1,0c0.1-1.3,0.8-2.5,1.8-3.3
	c0.5-0.3,0.6-1,0.2-1.4c-0.3-0.5-1-0.6-1.4-0.2c-0.7,0.5-1.3,1.1-1.7,1.8c-0.4-0.7-1-1.3-1.7-1.8c-0.5-0.3-1.1-0.2-1.4,0.2
	c-0.3,0.5-0.2,1.1,0.2,1.4c1.1,0.8,1.7,2,1.9,3.3c0,0-0.1,0-0.1,0c-2.2-3-5.3-5.3-8.9-6.4c-1.6-0.5-3.3-0.1-4.6,1
	c-1.3,1.1-1.8,2.8-1.5,4.4l1.6,8.2c0.3,1.5,1.3,2.8,2.7,3.4c0.4,0.2,0.9,0.3,1.3,0.4c-0.1,0.3-0.2,0.5-0.2,0.8
	c-0.3,1.3,0.1,2.7,0.9,3.8c0.9,1.2,2.3,1.9,3.8,1.9h1.1c2,0,3.8-1.3,4.5-3.1l0.4-1.2h0l0.4,1.2c0.5,1.2,1.4,2.2,2.6,2.7
	c0.1,0,0.1,0,0.2,0.1c0.2,0.2,0.8,0.2,1.1,0.3c0.3,0.1,0.6,0.1,0.9,0.1v-0.1h0.9c1.5,0,2.9-0.7,3.8-1.9c0.8-1.1,1.2-2.5,0.9-3.8
	c-0.1-0.3-0.1-0.6-0.2-0.8c0.4-0.1,0.9-0.2,1.3-0.4c1.4-0.6,2.4-1.9,2.7-3.4l1.6-8.2C85,60.6,84.4,59,83.2,57.8z M57.7,72
	c-0.8-0.4-1.4-1.1-1.5-1.9l-1.6-8.2c-0.2-0.9,0.1-1.9,0.8-2.5c0.7-0.6,1.7-0.9,2.6-0.6c3.3,1,6.1,3.1,8,5.9
	c-0.1,0.3-0.2,0.7-0.2,1.1v2.8l-5.6,3.3c0,0,0,0,0,0C59.4,72.3,58.5,72.4,57.7,72z M66.2,76.9c-0.4,1.1-1.4,1.8-2.6,1.8h-1.1
	c-0.8,0-1.6-0.4-2.2-1.1c-0.5-0.6-0.7-1.4-0.5-2.2c0.1-0.8,0.6-1.4,1.3-1.8c0,0,0,0,0,0l4.6-2.7v2.7c0,0.8,0.3,1.5,0.9,2L66.2,76.9z
	 M69.3,73.6c0,0.4-0.3,0.8-0.8,0.8c-0.4,0-0.8-0.3-0.8-0.8v-7.9c0-0.4,0.3-0.8,0.8-0.8c0.4,0,0.8,0.3,0.8,0.8V73.6z M76.8,77.6
	c-0.5,0.7-1.3,1.1-2.2,1.1h-1.1c-1.1,0-2.2-0.7-2.6-1.8l-0.4-1.2c0.5-0.5,0.9-1.2,0.9-2v-2.7l4.6,2.7c0,0,0,0,0,0
	c0.7,0.4,1.1,1.1,1.3,1.8C77.4,76.2,77.3,77,76.8,77.6z M82.7,61.9l-1.6,8.2c-0.2,0.9-0.7,1.6-1.5,1.9c-0.8,0.4-1.7,0.3-2.5-0.1
	c0,0,0,0,0,0l-5.6-3.3v-2.8c0-0.4-0.1-0.7-0.2-1.1c1.9-2.8,4.8-4.9,8-5.9c0.9-0.3,1.9-0.1,2.6,0.6C82.5,60,82.8,60.9,82.7,61.9z"/>
<path class="st1" d="M50.2,90.8c-1.3-1.1-3-1.5-4.6-1c-3.6,1.1-6.7,3.3-8.9,6.4c0,0-0.1,0-0.1,0c0.1-1.3,0.8-2.5,1.8-3.3
	c0.5-0.3,0.6-1,0.2-1.4c-0.3-0.5-1-0.6-1.4-0.2c-0.7,0.5-1.3,1.1-1.7,1.8c-0.4-0.7-1-1.3-1.7-1.8c-0.5-0.3-1.1-0.2-1.4,0.2
	c-0.3,0.5-0.2,1.1,0.2,1.4c1.1,0.8,1.7,2,1.9,3.3c0,0-0.1,0-0.1,0c-2.2-3-5.3-5.3-8.9-6.4c-1.6-0.5-3.3-0.1-4.6,1
	c-1.3,1.1-1.8,2.8-1.5,4.4l1.6,8.2c0.3,1.5,1.3,2.8,2.7,3.4c0.4,0.2,0.9,0.3,1.3,0.4c-0.1,0.3-0.2,0.5-0.2,0.8
	c-0.3,1.3,0.1,2.7,0.9,3.8c0.9,1.2,2.3,1.9,3.8,1.9h1.1c2,0,3.8-1.3,4.5-3.1l0.4-1.2h0l0.4,1.2c0.5,1.2,1.4,2.2,2.6,2.7
	c0.1,0,0.1,0,0.2,0.1c0.2,0.2,0.8,0.2,1.1,0.3c0.3,0.1,0.6,0.1,0.9,0.1v-0.1h0.9c1.5,0,2.9-0.7,3.8-1.9c0.8-1.1,1.2-2.5,0.9-3.8
	c-0.1-0.3-0.1-0.6-0.2-0.8c0.4-0.1,0.9-0.2,1.3-0.4c1.4-0.6,2.4-1.9,2.7-3.4l1.6-8.2C52.1,93.6,51.5,91.9,50.2,90.8z M24.7,104.9
	c-0.8-0.4-1.4-1.1-1.5-1.9l-1.6-8.2c-0.2-0.9,0.1-1.9,0.8-2.5c0.7-0.6,1.7-0.9,2.6-0.6c3.3,1,6.1,3.1,8,5.9
	c-0.1,0.3-0.2,0.7-0.2,1.1v2.8l-5.6,3.3c0,0,0,0,0,0C26.5,105.3,25.6,105.3,24.7,104.9z M33.3,109.8c-0.4,1.1-1.4,1.8-2.6,1.8h-1.1
	c-0.8,0-1.6-0.4-2.2-1.1c-0.5-0.6-0.7-1.4-0.5-2.2c0.1-0.8,0.6-1.4,1.3-1.8c0,0,0,0,0,0l4.6-2.7v2.7c0,0.8,0.3,1.5,0.9,2L33.3,109.8
	z M36.4,106.6c0,0.4-0.3,0.8-0.8,0.8s-0.8-0.3-0.8-0.8v-7.9c0-0.4,0.3-0.8,0.8-0.8s0.8,0.3,0.8,0.8V106.6z M43.9,110.6
	c-0.5,0.7-1.3,1.1-2.2,1.1h-1.1c-1.1,0-2.2-0.7-2.6-1.8l-0.4-1.2c0.5-0.5,0.9-1.2,0.9-2v-2.7l4.6,2.7c0,0,0,0,0,0
	c0.7,0.4,1.1,1.1,1.3,1.8C44.5,109.1,44.3,109.9,43.9,110.6z M49.7,94.8l-1.6,8.2c-0.2,0.9-0.7,1.6-1.5,1.9
	c-0.8,0.4-1.7,0.3-2.5-0.1c0,0,0,0,0,0l-5.6-3.3v-2.8c0-0.4-0.1-0.7-0.2-1.1c1.9-2.8,4.8-4.9,8-5.9c0.9-0.3,1.9-0.1,2.6,0.6
	C49.6,92.9,49.9,93.9,49.7,94.8z"/>
<path class="st1" d="M117.1,90.8c-1.3-1.1-3-1.5-4.6-1c-3.6,1.1-6.7,3.3-8.9,6.4c0,0-0.1,0-0.1,0c0.1-1.3,0.8-2.5,1.8-3.3
	c0.5-0.3,0.6-1,0.2-1.4c-0.3-0.5-1-0.6-1.4-0.2c-0.7,0.5-1.3,1.1-1.7,1.8c-0.4-0.7-1-1.3-1.7-1.8c-0.5-0.3-1.1-0.2-1.4,0.2
	c-0.3,0.5-0.2,1.1,0.2,1.4c1.1,0.8,1.7,2,1.9,3.3c0,0-0.1,0-0.1,0c-2.2-3-5.3-5.3-8.9-6.4c-1.6-0.5-3.3-0.1-4.6,1
	c-1.3,1.1-1.8,2.8-1.5,4.4l1.6,8.2c0.3,1.5,1.3,2.8,2.7,3.4c0.4,0.2,0.9,0.3,1.3,0.4c-0.1,0.3-0.2,0.5-0.2,0.8
	c-0.3,1.3,0.1,2.7,0.9,3.8c0.9,1.2,2.3,1.9,3.8,1.9h1.1c2,0,3.8-1.3,4.5-3.1l0.4-1.2h0l0.4,1.2c0.5,1.2,1.4,2.2,2.6,2.7
	c0.1,0,0.1,0,0.2,0.1c0.2,0.2,0.8,0.2,1.1,0.3c0.3,0.1,0.6,0.1,0.9,0.1v-0.1h0.9c1.5,0,2.9-0.7,3.8-1.9c0.8-1.1,1.2-2.5,0.9-3.8
	c-0.1-0.3-0.1-0.6-0.2-0.8c0.4-0.1,0.9-0.2,1.3-0.4c1.4-0.6,2.4-1.9,2.7-3.4l1.6-8.2C118.9,93.6,118.3,91.9,117.1,90.8z M91.6,104.9
	c-0.8-0.4-1.4-1.1-1.5-1.9l-1.6-8.2c-0.2-0.9,0.1-1.9,0.8-2.5c0.7-0.6,1.7-0.9,2.6-0.6c3.3,1,6.1,3.1,8,5.9
	c-0.1,0.3-0.2,0.7-0.2,1.1v2.8l-5.6,3.3c0,0,0,0,0,0C93.3,105.3,92.4,105.3,91.6,104.9z M100.2,109.8c-0.4,1.1-1.4,1.8-2.6,1.8h-1.1
	c-0.8,0-1.6-0.4-2.2-1.1c-0.5-0.6-0.7-1.4-0.5-2.2c0.1-0.8,0.6-1.4,1.3-1.8c0,0,0,0,0,0l4.6-2.7v2.7c0,0.8,0.3,1.5,0.9,2
	L100.2,109.8z M103.3,106.6c0,0.4-0.3,0.8-0.8,0.8c-0.4,0-0.8-0.3-0.8-0.8v-7.9c0-0.4,0.3-0.8,0.8-0.8c0.4,0,0.8,0.3,0.8,0.8V106.6z
	 M110.7,110.6c-0.5,0.7-1.3,1.1-2.2,1.1h-1.1c-1.1,0-2.2-0.7-2.6-1.8l-0.4-1.2c0.5-0.5,0.9-1.2,0.9-2v-2.7l4.6,2.7c0,0,0,0,0,0
	c0.7,0.4,1.1,1.1,1.3,1.8C111.4,109.1,111.2,109.9,110.7,110.6z M116.6,94.8L115,103c-0.2,0.9-0.7,1.6-1.5,1.9
	c-0.8,0.4-1.7,0.3-2.5-0.1c0,0,0,0,0,0l-5.6-3.3v-2.8c0-0.4-0.1-0.7-0.2-1.1c1.9-2.8,4.8-4.9,8-5.9c0.9-0.3,1.9-0.1,2.6,0.6
	C116.4,92.9,116.8,93.9,116.6,94.8z"/>
<path class="st1" d="M84.8,125.3c-1.3-1.1-3-1.5-4.6-1c-3.6,1.1-6.7,3.3-8.9,6.4c0,0-0.1,0-0.1,0c0.1-1.3,0.8-2.5,1.8-3.3
	c0.5-0.3,0.6-1,0.2-1.4c-0.3-0.5-1-0.6-1.4-0.2c-0.7,0.5-1.3,1.1-1.7,1.8c-0.4-0.7-1-1.3-1.7-1.8c-0.5-0.3-1.1-0.2-1.4,0.2
	c-0.3,0.5-0.2,1.1,0.2,1.4c1.1,0.8,1.7,2,1.9,3.3c0,0-0.1,0-0.1,0c-2.2-3-5.3-5.3-8.9-6.4c-1.6-0.5-3.3-0.1-4.6,1
	c-1.3,1.1-1.8,2.8-1.5,4.4l1.6,8.2c0.3,1.5,1.3,2.8,2.7,3.4c0.4,0.2,0.9,0.3,1.3,0.4c-0.1,0.3-0.2,0.5-0.2,0.8
	c-0.3,1.3,0.1,2.7,0.9,3.8c0.9,1.2,2.3,1.9,3.8,1.9h1.1c2,0,3.8-1.3,4.5-3.1l0.4-1.2h0l0.4,1.2c0.5,1.2,1.4,2.2,2.6,2.7
	c0.1,0,0.1,0,0.2,0.1c0.2,0.2,0.8,0.2,1.1,0.3c0.3,0.1,0.6,0.1,0.9,0.1v-0.1h0.9c1.5,0,2.9-0.7,3.8-1.9c0.8-1.1,1.2-2.5,0.9-3.8
	c-0.1-0.3-0.1-0.6-0.2-0.8c0.4-0.1,0.9-0.2,1.3-0.4c1.4-0.6,2.4-1.9,2.7-3.4l1.6-8.2C86.6,128.1,86,126.4,84.8,125.3z M59.3,139.5
	c-0.8-0.4-1.4-1.1-1.5-1.9l-1.6-8.2c-0.2-0.9,0.1-1.9,0.8-2.5c0.7-0.6,1.7-0.9,2.6-0.6c3.3,1,6.1,3.1,8,5.9
	c-0.1,0.3-0.2,0.7-0.2,1.1v2.8l-5.6,3.3c0,0,0,0,0,0C61,139.8,60.1,139.8,59.3,139.5z M67.8,144.4c-0.4,1.1-1.4,1.8-2.6,1.8h-1.1
	c-0.8,0-1.6-0.4-2.2-1.1c-0.5-0.6-0.7-1.4-0.5-2.2c0.1-0.8,0.6-1.4,1.3-1.8c0,0,0,0,0,0l4.6-2.7v2.7c0,0.8,0.3,1.5,0.9,2L67.8,144.4
	z M70.9,141.1c0,0.4-0.3,0.8-0.8,0.8c-0.4,0-0.8-0.3-0.8-0.8v-7.9c0-0.4,0.3-0.8,0.8-0.8c0.4,0,0.8,0.3,0.8,0.8V141.1z M78.4,145.1
	c-0.5,0.7-1.3,1.1-2.2,1.1h-1.1c-1.1,0-2.2-0.7-2.6-1.8l-0.4-1.2c0.5-0.5,0.9-1.2,0.9-2v-2.7l4.6,2.7c0,0,0,0,0,0
	c0.7,0.4,1.1,1.1,1.3,1.8C79,143.7,78.8,144.5,78.4,145.1z M84.2,129.3l-1.6,8.2c-0.2,0.9-0.7,1.6-1.5,1.9c-0.8,0.4-1.7,0.3-2.5-0.1
	c0,0,0,0,0,0L73,136v-2.8c0-0.4-0.1-0.7-0.2-1.1c1.9-2.8,4.8-4.9,8-5.9c0.9-0.3,1.9-0.1,2.6,0.6C84.1,127.4,84.4,128.4,84.2,129.3z"
	/>
<path class="st1" d="M49.9,160.1c-1.3-1.1-3-1.5-4.6-1c-3.6,1.1-6.7,3.3-8.9,6.4c0,0-0.1,0-0.1,0c0.1-1.3,0.8-2.5,1.8-3.3
	c0.5-0.3,0.6-1,0.2-1.4c-0.3-0.5-1-0.6-1.4-0.2c-0.7,0.5-1.3,1.1-1.7,1.8c-0.4-0.7-1-1.3-1.7-1.8c-0.5-0.3-1.1-0.2-1.4,0.2
	c-0.3,0.5-0.2,1.1,0.2,1.4c1.1,0.8,1.7,2,1.9,3.3c0,0-0.1,0-0.1,0c-2.2-3-5.3-5.3-8.9-6.4c-1.6-0.5-3.3-0.1-4.6,1
	c-1.3,1.1-1.8,2.8-1.5,4.4l1.6,8.2c0.3,1.5,1.3,2.8,2.7,3.4c0.4,0.2,0.9,0.3,1.3,0.4c-0.1,0.3-0.2,0.5-0.2,0.8
	c-0.3,1.3,0.1,2.7,0.9,3.8c0.9,1.2,2.3,1.9,3.8,1.9h1.1c2,0,3.8-1.3,4.5-3.1l0.4-1.2h0l0.4,1.2c0.5,1.2,1.4,2.2,2.6,2.7
	c0.1,0,0.1,0,0.2,0.1c0.2,0.2,0.8,0.2,1.1,0.3c0.3,0.1,0.6,0.1,0.9,0.1V183h0.9c1.5,0,2.9-0.7,3.8-1.9c0.8-1.1,1.2-2.5,0.9-3.8
	c-0.1-0.3-0.1-0.6-0.2-0.8c0.4-0.1,0.9-0.2,1.3-0.4c1.4-0.6,2.4-1.9,2.7-3.4l1.6-8.2C51.7,162.9,51.2,161.3,49.9,160.1z M24.4,174.3
	c-0.8-0.4-1.4-1.1-1.5-1.9l-1.6-8.2c-0.2-0.9,0.1-1.9,0.8-2.5c0.7-0.6,1.7-0.9,2.6-0.6c3.3,1,6.1,3.1,8,5.9
	c-0.1,0.3-0.2,0.7-0.2,1.1v2.8l-5.6,3.3c0,0,0,0,0,0C26.1,174.6,25.2,174.7,24.4,174.3z M33,179.2c-0.4,1.1-1.4,1.8-2.6,1.8h-1.1
	c-0.8,0-1.6-0.4-2.2-1.1c-0.5-0.6-0.7-1.4-0.5-2.2c0.1-0.8,0.6-1.4,1.3-1.8c0,0,0,0,0,0l4.6-2.7v2.7c0,0.8,0.3,1.5,0.9,2L33,179.2z
	 M36.1,175.9c0,0.4-0.3,0.8-0.8,0.8s-0.8-0.3-0.8-0.8V168c0-0.4,0.3-0.8,0.8-0.8s0.8,0.3,0.8,0.8V175.9z M43.5,179.9
	c-0.5,0.7-1.3,1.1-2.2,1.1h-1.1c-1.1,0-2.2-0.7-2.6-1.8l-0.4-1.2c0.5-0.5,0.9-1.2,0.9-2v-2.7l4.6,2.7c0,0,0,0,0,0
	c0.7,0.4,1.1,1.1,1.3,1.8C44.2,178.5,44,179.3,43.5,179.9z M49.4,164.2l-1.6,8.2c-0.2,0.9-0.7,1.6-1.5,1.9c-0.8,0.4-1.7,0.3-2.5-0.1
	c0,0,0,0,0,0l-5.6-3.3V168c0-0.4-0.1-0.7-0.2-1.1c1.9-2.8,4.8-4.9,8-5.9c0.9-0.3,1.9-0.1,2.6,0.6C49.3,162.3,49.6,163.2,49.4,164.2z
	"/>
<path class="st1" d="M117.1,160.1c-1.3-1.1-3-1.5-4.6-1c-3.6,1.1-6.7,3.3-8.9,6.4c0,0-0.1,0-0.1,0c0.1-1.3,0.8-2.5,1.8-3.3
	c0.5-0.3,0.6-1,0.2-1.4c-0.3-0.5-1-0.6-1.4-0.2c-0.7,0.5-1.3,1.1-1.7,1.8c-0.4-0.7-1-1.3-1.7-1.8c-0.5-0.3-1.1-0.2-1.4,0.2
	c-0.3,0.5-0.2,1.1,0.2,1.4c1.1,0.8,1.7,2,1.9,3.3c0,0-0.1,0-0.1,0c-2.2-3-5.3-5.3-8.9-6.4c-1.6-0.5-3.3-0.1-4.6,1
	c-1.3,1.1-1.8,2.8-1.5,4.4l1.6,8.2c0.3,1.5,1.3,2.8,2.7,3.4c0.4,0.2,0.9,0.3,1.3,0.4c-0.1,0.3-0.2,0.5-0.2,0.8
	c-0.3,1.3,0.1,2.7,0.9,3.8c0.9,1.2,2.3,1.9,3.8,1.9h1.1c2,0,3.8-1.3,4.5-3.1l0.4-1.2h0l0.4,1.2c0.5,1.2,1.4,2.2,2.6,2.7
	c0.1,0,0.1,0,0.2,0.1c0.2,0.2,0.8,0.2,1.1,0.3c0.3,0.1,0.6,0.1,0.9,0.1V183h0.9c1.5,0,2.9-0.7,3.8-1.9c0.8-1.1,1.2-2.5,0.9-3.8
	c-0.1-0.3-0.1-0.6-0.2-0.8c0.4-0.1,0.9-0.2,1.3-0.4c1.4-0.6,2.4-1.9,2.7-3.4l1.6-8.2C118.9,162.9,118.3,161.3,117.1,160.1z
	 M91.6,174.3c-0.8-0.4-1.4-1.1-1.5-1.9l-1.6-8.2c-0.2-0.9,0.1-1.9,0.8-2.5c0.7-0.6,1.7-0.9,2.6-0.6c3.3,1,6.1,3.1,8,5.9
	c-0.1,0.3-0.2,0.7-0.2,1.1v2.8l-5.6,3.3c0,0,0,0,0,0C93.3,174.6,92.4,174.7,91.6,174.3z M100.2,179.2c-0.4,1.1-1.4,1.8-2.6,1.8h-1.1
	c-0.8,0-1.6-0.4-2.2-1.1c-0.5-0.6-0.7-1.4-0.5-2.2c0.1-0.8,0.6-1.4,1.3-1.8c0,0,0,0,0,0l4.6-2.7v2.7c0,0.8,0.3,1.5,0.9,2
	L100.2,179.2z M103.3,175.9c0,0.4-0.3,0.8-0.8,0.8c-0.4,0-0.8-0.3-0.8-0.8V168c0-0.4,0.3-0.8,0.8-0.8c0.4,0,0.8,0.3,0.8,0.8V175.9z
	 M110.7,179.9c-0.5,0.7-1.3,1.1-2.2,1.1h-1.1c-1.1,0-2.2-0.7-2.6-1.8l-0.4-1.2c0.5-0.5,0.9-1.2,0.9-2v-2.7l4.6,2.7c0,0,0,0,0,0
	c0.7,0.4,1.1,1.1,1.3,1.8C111.4,178.5,111.2,179.3,110.7,179.9z M116.6,164.2l-1.6,8.2c-0.2,0.9-0.7,1.6-1.5,1.9
	c-0.8,0.4-1.7,0.3-2.5-0.1c0,0,0,0,0,0l-5.6-3.3V168c0-0.4-0.1-0.7-0.2-1.1c1.9-2.8,4.8-4.9,8-5.9c0.9-0.3,1.9-0.1,2.6,0.6
	C116.4,162.3,116.8,163.2,116.6,164.2z"/>
<path class="st1" d="M168.5,73c-1.3-1.1-3-1.5-4.6-1c-3.6,1.1-6.7,3.3-8.9,6.4c0,0-0.1,0-0.1,0c0.1-1.3,0.8-2.5,1.8-3.3
	c0.5-0.3,0.6-1,0.2-1.4c-0.3-0.5-1-0.6-1.4-0.2c-0.7,0.5-1.3,1.1-1.7,1.8c-0.4-0.7-1-1.3-1.7-1.8c-0.5-0.3-1.1-0.2-1.4,0.2
	c-0.3,0.5-0.2,1.1,0.2,1.4c1.1,0.8,1.7,2,1.9,3.3c0,0-0.1,0-0.1,0c-2.2-3-5.3-5.3-8.9-6.4c-1.6-0.5-3.3-0.1-4.6,1
	c-1.3,1.1-1.8,2.8-1.5,4.4l1.6,8.2c0.3,1.5,1.3,2.8,2.7,3.4c0.4,0.2,0.9,0.3,1.3,0.4c-0.1,0.3-0.2,0.5-0.2,0.8
	c-0.3,1.3,0.1,2.7,0.9,3.8c0.9,1.2,2.3,1.9,3.8,1.9h1.1c2,0,3.8-1.3,4.5-3.1l0.4-1.2h0l0.4,1.2c0.5,1.2,1.4,2.2,2.6,2.7
	c0.1,0,0.1,0,0.2,0.1c0.2,0.2,0.8,0.2,1.1,0.3c0.3,0.1,0.6,0.1,0.9,0.1v-0.1h0.9c1.5,0,2.9-0.7,3.8-1.9c0.8-1.1,1.2-2.5,0.9-3.8
	c-0.1-0.3-0.1-0.6-0.2-0.8c0.4-0.1,0.9-0.2,1.3-0.4c1.4-0.6,2.4-1.9,2.7-3.4l1.6-8.2C170.3,75.8,169.8,74.2,168.5,73z M143,87.2
	c-0.8-0.4-1.4-1.1-1.5-1.9l-1.6-8.2c-0.2-0.9,0.1-1.9,0.8-2.5c0.7-0.6,1.7-0.9,2.6-0.6c3.3,1,6.1,3.1,8,5.9
	c-0.1,0.3-0.2,0.7-0.2,1.1v2.8l-5.6,3.3c0,0,0,0,0,0C144.7,87.5,143.8,87.6,143,87.2z M151.6,92.1c-0.4,1.1-1.4,1.8-2.6,1.8h-1.1
	c-0.8,0-1.6-0.4-2.2-1.1c-0.5-0.6-0.7-1.4-0.5-2.2c0.1-0.8,0.6-1.4,1.3-1.8c0,0,0,0,0,0l4.6-2.7v2.7c0,0.8,0.3,1.5,0.9,2L151.6,92.1
	z M154.7,88.8c0,0.4-0.3,0.8-0.8,0.8s-0.8-0.3-0.8-0.8v-7.9c0-0.4,0.3-0.8,0.8-0.8s0.8,0.3,0.8,0.8V88.8z M162.1,92.8
	c-0.5,0.7-1.3,1.1-2.2,1.1h-1.1c-1.1,0-2.2-0.7-2.6-1.8l-0.4-1.2c0.5-0.5,0.9-1.2,0.9-2v-2.7l4.6,2.7c0,0,0,0,0,0
	c0.7,0.4,1.1,1.1,1.3,1.8C162.8,91.4,162.6,92.2,162.1,92.8z M168,77.1l-1.6,8.2c-0.2,0.9-0.7,1.6-1.5,1.9c-0.8,0.4-1.7,0.3-2.5-0.1
	c0,0,0,0,0,0l-5.6-3.3v-2.8c0-0.4-0.1-0.7-0.2-1.1c1.9-2.8,4.8-4.9,8-5.9c0.9-0.3,1.9-0.1,2.6,0.6C167.9,75.2,168.2,76.1,168,77.1z"
	/>
<path class="st1" d="M168.5,139.3c-1.3-1.1-3-1.5-4.6-1c-3.6,1.1-6.7,3.3-8.9,6.4c0,0-0.1,0-0.1,0c0.1-1.3,0.8-2.5,1.8-3.3
	c0.5-0.3,0.6-1,0.2-1.4c-0.3-0.5-1-0.6-1.4-0.2c-0.7,0.5-1.3,1.1-1.7,1.8c-0.4-0.7-1-1.3-1.7-1.8c-0.5-0.3-1.1-0.2-1.4,0.2
	c-0.3,0.5-0.2,1.1,0.2,1.4c1.1,0.8,1.7,2,1.9,3.3c0,0-0.1,0-0.1,0c-2.2-3-5.3-5.3-8.9-6.4c-1.6-0.5-3.3-0.1-4.6,1
	c-1.3,1.1-1.8,2.8-1.5,4.4l1.6,8.2c0.3,1.5,1.3,2.8,2.7,3.4c0.4,0.2,0.9,0.3,1.3,0.4c-0.1,0.3-0.2,0.5-0.2,0.8
	c-0.3,1.3,0.1,2.7,0.9,3.8c0.9,1.2,2.3,1.9,3.8,1.9h1.1c2,0,3.8-1.3,4.5-3.1l0.4-1.2h0l0.4,1.2c0.5,1.2,1.4,2.2,2.6,2.7
	c0.1,0,0.1,0,0.2,0.1c0.2,0.2,0.8,0.2,1.1,0.3c0.3,0.1,0.6,0.1,0.9,0.1v-0.1h0.9c1.5,0,2.9-0.7,3.8-1.9c0.8-1.1,1.2-2.5,0.9-3.8
	c-0.1-0.3-0.1-0.6-0.2-0.8c0.4-0.1,0.9-0.2,1.3-0.4c1.4-0.6,2.4-1.9,2.7-3.4l1.6-8.2C170.3,142.1,169.8,140.4,168.5,139.3z
	 M143,153.5c-0.8-0.4-1.4-1.1-1.5-1.9l-1.6-8.2c-0.2-0.9,0.1-1.9,0.8-2.5c0.7-0.6,1.7-0.9,2.6-0.6c3.3,1,6.1,3.1,8,5.9
	c-0.1,0.3-0.2,0.7-0.2,1.1v2.8l-5.6,3.3c0,0,0,0,0,0C144.7,153.8,143.8,153.8,143,153.5z M151.6,158.4c-0.4,1.1-1.4,1.8-2.6,1.8
	h-1.1c-0.8,0-1.6-0.4-2.2-1.1c-0.5-0.6-0.7-1.4-0.5-2.2c0.1-0.8,0.6-1.4,1.3-1.8c0,0,0,0,0,0l4.6-2.7v2.7c0,0.8,0.3,1.5,0.9,2
	L151.6,158.4z M154.7,155.1c0,0.4-0.3,0.8-0.8,0.8s-0.8-0.3-0.8-0.8v-7.9c0-0.4,0.3-0.8,0.8-0.8s0.8,0.3,0.8,0.8V155.1z
	 M162.1,159.1c-0.5,0.7-1.3,1.1-2.2,1.1h-1.1c-1.1,0-2.2-0.7-2.6-1.8l-0.4-1.2c0.5-0.5,0.9-1.2,0.9-2v-2.7l4.6,2.7c0,0,0,0,0,0
	c0.7,0.4,1.1,1.1,1.3,1.8C162.8,157.7,162.6,158.5,162.1,159.1z M168,143.4l-1.6,8.2c-0.2,0.9-0.7,1.6-1.5,1.9
	c-0.8,0.4-1.7,0.3-2.5-0.1c0,0,0,0,0,0l-5.6-3.3v-2.8c0-0.4-0.1-0.7-0.2-1.1c1.9-2.8,4.8-4.9,8-5.9c0.9-0.3,1.9-0.1,2.6,0.6
	C167.9,141.5,168.2,142.4,168,143.4z"/>
<path class="st1" d="M168.5,208.7c-1.3-1.1-3-1.5-4.6-1c-3.6,1.1-6.7,3.3-8.9,6.4c0,0-0.1,0-0.1,0c0.1-1.3,0.8-2.5,1.8-3.3
	c0.5-0.3,0.6-1,0.2-1.4c-0.3-0.5-1-0.6-1.4-0.2c-0.7,0.5-1.3,1.1-1.7,1.8c-0.4-0.7-1-1.3-1.7-1.8c-0.5-0.3-1.1-0.2-1.4,0.2
	c-0.3,0.5-0.2,1.1,0.2,1.4c1.1,0.8,1.7,2,1.9,3.3c0,0-0.1,0-0.1,0c-2.2-3-5.3-5.3-8.9-6.4c-1.6-0.5-3.3-0.1-4.6,1
	c-1.3,1.1-1.8,2.8-1.5,4.4l1.6,8.2c0.3,1.5,1.3,2.8,2.7,3.4c0.4,0.2,0.9,0.3,1.3,0.4c-0.1,0.3-0.2,0.5-0.2,0.8
	c-0.3,1.3,0.1,2.7,0.9,3.8c0.9,1.2,2.3,1.9,3.8,1.9h1.1c2,0,3.8-1.3,4.5-3.1l0.4-1.2h0l0.4,1.2c0.5,1.2,1.4,2.2,2.6,2.7
	c0.1,0,0.1,0,0.2,0.1c0.2,0.2,0.8,0.2,1.1,0.3c0.3,0.1,0.6,0.1,0.9,0.1v-0.1h0.9c1.5,0,2.9-0.7,3.8-1.9c0.8-1.1,1.2-2.5,0.9-3.8
	c-0.1-0.3-0.1-0.6-0.2-0.8c0.4-0.1,0.9-0.2,1.3-0.4c1.4-0.6,2.4-1.9,2.7-3.4l1.6-8.2C170.3,211.5,169.8,209.8,168.5,208.7z
	 M143,222.8c-0.8-0.4-1.4-1.1-1.5-1.9l-1.6-8.2c-0.2-0.9,0.1-1.9,0.8-2.5c0.7-0.6,1.7-0.9,2.6-0.6c3.3,1,6.1,3.1,8,5.9
	c-0.1,0.3-0.2,0.7-0.2,1.1v2.8l-5.6,3.3c0,0,0,0,0,0C144.7,223.2,143.8,223.2,143,222.8z M151.6,227.7c-0.4,1.1-1.4,1.8-2.6,1.8
	h-1.1c-0.8,0-1.6-0.4-2.2-1.1c-0.5-0.6-0.7-1.4-0.5-2.2c0.1-0.8,0.6-1.4,1.3-1.8c0,0,0,0,0,0l4.6-2.7v2.7c0,0.8,0.3,1.5,0.9,2
	L151.6,227.7z M154.7,224.5c0,0.4-0.3,0.8-0.8,0.8s-0.8-0.3-0.8-0.8v-7.9c0-0.4,0.3-0.8,0.8-0.8s0.8,0.3,0.8,0.8V224.5z
	 M162.1,228.5c-0.5,0.7-1.3,1.1-2.2,1.1h-1.1c-1.1,0-2.2-0.7-2.6-1.8l-0.4-1.2c0.5-0.5,0.9-1.2,0.9-2v-2.7l4.6,2.7c0,0,0,0,0,0
	c0.7,0.4,1.1,1.1,1.3,1.8C162.8,227,162.6,227.8,162.1,228.5z M168,212.7l-1.6,8.2c-0.2,0.9-0.7,1.6-1.5,1.9
	c-0.8,0.4-1.7,0.3-2.5-0.1c0,0,0,0,0,0l-5.6-3.3v-2.8c0-0.4-0.1-0.7-0.2-1.1c1.9-2.8,4.8-4.9,8-5.9c0.9-0.3,1.9-0.1,2.6,0.6
	C167.9,210.8,168.2,211.8,168,212.7z"/>
<path class="st1" d="M200,41.5c-1.3-1.1-3-1.5-4.6-1c-3.6,1.1-6.7,3.3-8.9,6.4c0,0-0.1,0-0.1,0c0.1-1.3,0.8-2.5,1.8-3.3
	c0.5-0.3,0.6-1,0.2-1.4c-0.3-0.5-1-0.6-1.4-0.2c-0.7,0.5-1.3,1.1-1.7,1.8c-0.4-0.7-1-1.3-1.7-1.8c-0.5-0.3-1.1-0.2-1.4,0.2
	c-0.3,0.5-0.2,1.1,0.2,1.4c1.1,0.8,1.7,2,1.9,3.3c0,0-0.1,0-0.1,0c-2.2-3-5.3-5.3-8.9-6.4c-1.6-0.5-3.3-0.1-4.6,1
	c-1.3,1.1-1.8,2.8-1.5,4.4l1.6,8.2c0.3,1.5,1.3,2.8,2.7,3.4c0.4,0.2,0.9,0.3,1.3,0.4c-0.1,0.3-0.2,0.5-0.2,0.8
	c-0.3,1.3,0.1,2.7,0.9,3.8c0.9,1.2,2.3,1.9,3.8,1.9h1.1c2,0,3.8-1.3,4.5-3.1l0.4-1.2h0l0.4,1.2c0.5,1.2,1.4,2.2,2.6,2.7
	c0.1,0,0.1,0,0.2,0.1c0.2,0.2,0.8,0.2,1.1,0.3c0.3,0.1,0.6,0.1,0.9,0.1v-0.1h0.9c1.5,0,2.9-0.7,3.8-1.9c0.8-1.1,1.2-2.5,0.9-3.8
	c-0.1-0.3-0.1-0.6-0.2-0.8c0.4-0.1,0.9-0.2,1.3-0.4c1.4-0.6,2.4-1.9,2.7-3.4l1.6-8.2C201.8,44.3,201.3,42.6,200,41.5z M174.5,55.7
	c-0.8-0.4-1.4-1.1-1.5-1.9l-1.6-8.2c-0.2-0.9,0.1-1.9,0.8-2.5c0.7-0.6,1.7-0.9,2.6-0.6c3.3,1,6.1,3.1,8,5.9
	c-0.1,0.3-0.2,0.7-0.2,1.1v2.8l-5.6,3.3c0,0,0,0,0,0C176.2,56,175.3,56,174.5,55.7z M183.1,60.6c-0.4,1.1-1.4,1.8-2.6,1.8h-1.1
	c-0.8,0-1.6-0.4-2.2-1.1c-0.5-0.6-0.7-1.4-0.5-2.2c0.1-0.8,0.6-1.4,1.3-1.8c0,0,0,0,0,0l4.6-2.7v2.7c0,0.8,0.3,1.5,0.9,2L183.1,60.6
	z M186.2,57.3c0,0.4-0.3,0.8-0.8,0.8c-0.4,0-0.8-0.3-0.8-0.8v-7.9c0-0.4,0.3-0.8,0.8-0.8c0.4,0,0.8,0.3,0.8,0.8V57.3z M193.6,61.3
	c-0.5,0.7-1.3,1.1-2.2,1.1h-1.1c-1.1,0-2.2-0.7-2.6-1.8l-0.4-1.2c0.5-0.5,0.9-1.2,0.9-2v-2.7l4.6,2.7c0,0,0,0,0,0
	c0.7,0.4,1.1,1.1,1.3,1.8C194.3,59.9,194.1,60.7,193.6,61.3z M199.5,45.6l-1.6,8.2c-0.2,0.9-0.7,1.6-1.5,1.9
	c-0.8,0.4-1.7,0.3-2.5-0.1c0,0,0,0,0,0l-5.6-3.3v-2.8c0-0.4-0.1-0.7-0.2-1.1c1.9-2.8,4.8-4.9,8-5.9c0.9-0.3,1.9-0.1,2.6,0.6
	C199.4,43.7,199.7,44.6,199.5,45.6z"/>
<path class="st1" d="M200,107.8c-1.3-1.1-3-1.5-4.6-1c-3.6,1.1-6.7,3.3-8.9,6.4c0,0-0.1,0-0.1,0c0.1-1.3,0.8-2.5,1.8-3.3
	c0.5-0.3,0.6-1,0.2-1.4c-0.3-0.5-1-0.6-1.4-0.2c-0.7,0.5-1.3,1.1-1.7,1.8c-0.4-0.7-1-1.3-1.7-1.8c-0.5-0.3-1.1-0.2-1.4,0.2
	c-0.3,0.5-0.2,1.1,0.2,1.4c1.1,0.8,1.7,2,1.9,3.3c0,0-0.1,0-0.1,0c-2.2-3-5.3-5.3-8.9-6.4c-1.6-0.5-3.3-0.1-4.6,1
	c-1.3,1.1-1.8,2.8-1.5,4.4l1.6,8.2c0.3,1.5,1.3,2.8,2.7,3.4c0.4,0.2,0.9,0.3,1.3,0.4c-0.1,0.3-0.2,0.5-0.2,0.8
	c-0.3,1.3,0.1,2.7,0.9,3.8c0.9,1.2,2.3,1.9,3.8,1.9h1.1c2,0,3.8-1.3,4.5-3.1l0.4-1.2h0l0.4,1.2c0.5,1.2,1.4,2.2,2.6,2.7
	c0.1,0,0.1,0,0.2,0.1c0.2,0.2,0.8,0.2,1.1,0.3c0.3,0.1,0.6,0.1,0.9,0.1v-0.1h0.9c1.5,0,2.9-0.7,3.8-1.9c0.8-1.1,1.2-2.5,0.9-3.8
	c-0.1-0.3-0.1-0.6-0.2-0.8c0.4-0.1,0.9-0.2,1.3-0.4c1.4-0.6,2.4-1.9,2.7-3.4l1.6-8.2C201.8,110.6,201.3,108.9,200,107.8z M174.5,122
	c-0.8-0.4-1.4-1.1-1.5-1.9l-1.6-8.2c-0.2-0.9,0.1-1.9,0.8-2.5c0.7-0.6,1.7-0.9,2.6-0.6c3.3,1,6.1,3.1,8,5.9
	c-0.1,0.3-0.2,0.7-0.2,1.1v2.8l-5.6,3.3c0,0,0,0,0,0C176.2,122.3,175.3,122.3,174.5,122z M183.1,126.8c-0.4,1.1-1.4,1.8-2.6,1.8
	h-1.1c-0.8,0-1.6-0.4-2.2-1.1c-0.5-0.6-0.7-1.4-0.5-2.2c0.1-0.8,0.6-1.4,1.3-1.8c0,0,0,0,0,0l4.6-2.7v2.7c0,0.8,0.3,1.5,0.9,2
	L183.1,126.8z M186.2,123.6c0,0.4-0.3,0.8-0.8,0.8c-0.4,0-0.8-0.3-0.8-0.8v-7.9c0-0.4,0.3-0.8,0.8-0.8c0.4,0,0.8,0.3,0.8,0.8V123.6z
	 M193.6,127.6c-0.5,0.7-1.3,1.1-2.2,1.1h-1.1c-1.1,0-2.2-0.7-2.6-1.8l-0.4-1.2c0.5-0.5,0.9-1.2,0.9-2v-2.7l4.6,2.7c0,0,0,0,0,0
	c0.7,0.4,1.1,1.1,1.3,1.8C194.3,126.2,194.1,127,193.6,127.6z M199.5,111.8l-1.6,8.2c-0.2,0.9-0.7,1.6-1.5,1.9
	c-0.8,0.4-1.7,0.3-2.5-0.1c0,0,0,0,0,0l-5.6-3.3v-2.8c0-0.4-0.1-0.7-0.2-1.1c1.9-2.8,4.8-4.9,8-5.9c0.9-0.3,1.9-0.1,2.6,0.6
	C199.4,109.9,199.7,110.9,199.5,111.8z"/>
<path class="st1" d="M200,177.1c-1.3-1.1-3-1.5-4.6-1c-3.6,1.1-6.7,3.3-8.9,6.4c0,0-0.1,0-0.1,0c0.1-1.3,0.8-2.5,1.8-3.3
	c0.5-0.3,0.6-1,0.2-1.4c-0.3-0.5-1-0.6-1.4-0.2c-0.7,0.5-1.3,1.1-1.7,1.8c-0.4-0.7-1-1.3-1.7-1.8c-0.5-0.3-1.1-0.2-1.4,0.2
	c-0.3,0.5-0.2,1.1,0.2,1.4c1.1,0.8,1.7,2,1.9,3.3c0,0-0.1,0-0.1,0c-2.2-3-5.3-5.3-8.9-6.4c-1.6-0.5-3.3-0.1-4.6,1
	c-1.3,1.1-1.8,2.8-1.5,4.4l1.6,8.2c0.3,1.5,1.3,2.8,2.7,3.4c0.4,0.2,0.9,0.3,1.3,0.4c-0.1,0.3-0.2,0.5-0.2,0.8
	c-0.3,1.3,0.1,2.7,0.9,3.8c0.9,1.2,2.3,1.9,3.8,1.9h1.1c2,0,3.8-1.3,4.5-3.1l0.4-1.2h0l0.4,1.2c0.5,1.2,1.4,2.2,2.6,2.7
	c0.1,0,0.1,0,0.2,0.1c0.2,0.2,0.8,0.2,1.1,0.3c0.3,0.1,0.6,0.1,0.9,0.1V200h0.9c1.5,0,2.9-0.7,3.8-1.9c0.8-1.1,1.2-2.5,0.9-3.8
	c-0.1-0.3-0.1-0.6-0.2-0.8c0.4-0.1,0.9-0.2,1.3-0.4c1.4-0.6,2.4-1.9,2.7-3.4l1.6-8.2C201.8,179.9,201.3,178.3,200,177.1z
	 M174.5,191.3c-0.8-0.4-1.4-1.1-1.5-1.9l-1.6-8.2c-0.2-0.9,0.1-1.9,0.8-2.5c0.7-0.6,1.7-0.9,2.6-0.6c3.3,1,6.1,3.1,8,5.9
	c-0.1,0.3-0.2,0.7-0.2,1.1v2.8l-5.6,3.3c0,0,0,0,0,0C176.2,191.6,175.3,191.7,174.5,191.3z M183.1,196.2c-0.4,1.1-1.4,1.8-2.6,1.8
	h-1.1c-0.8,0-1.6-0.4-2.2-1.1c-0.5-0.6-0.7-1.4-0.5-2.2c0.1-0.8,0.6-1.4,1.3-1.8c0,0,0,0,0,0l4.6-2.7v2.7c0,0.8,0.3,1.5,0.9,2
	L183.1,196.2z M186.2,192.9c0,0.4-0.3,0.8-0.8,0.8c-0.4,0-0.8-0.3-0.8-0.8V185c0-0.4,0.3-0.8,0.8-0.8c0.4,0,0.8,0.3,0.8,0.8V192.9z
	 M193.6,196.9c-0.5,0.7-1.3,1.1-2.2,1.1h-1.1c-1.1,0-2.2-0.7-2.6-1.8l-0.4-1.2c0.5-0.5,0.9-1.2,0.9-2v-2.7l4.6,2.7c0,0,0,0,0,0
	c0.7,0.4,1.1,1.1,1.3,1.8C194.3,195.5,194.1,196.3,193.6,196.9z M199.5,181.2l-1.6,8.2c-0.2,0.9-0.7,1.6-1.5,1.9
	c-0.8,0.4-1.7,0.3-2.5-0.1c0,0,0,0,0,0l-5.6-3.3V185c0-0.4-0.1-0.7-0.2-1.1c1.9-2.8,4.8-4.9,8-5.9c0.9-0.3,1.9-0.1,2.6,0.6
	C199.4,179.3,199.7,180.3,199.5,181.2z"/>
<path class="st1" d="M232,73.4c-1.3-1.1-3-1.5-4.6-1c-3.6,1.1-6.7,3.3-8.9,6.4c0,0-0.1,0-0.1,0c0.1-1.3,0.8-2.5,1.8-3.3
	c0.5-0.3,0.6-1,0.2-1.4c-0.3-0.5-1-0.6-1.4-0.2c-0.7,0.5-1.3,1.1-1.7,1.8c-0.4-0.7-1-1.3-1.7-1.8c-0.5-0.3-1.1-0.2-1.4,0.2
	c-0.3,0.5-0.2,1.1,0.2,1.4c1.1,0.8,1.7,2,1.9,3.3c0,0-0.1,0-0.1,0c-2.2-3-5.3-5.3-8.9-6.4c-1.6-0.5-3.3-0.1-4.6,1
	c-1.3,1.1-1.8,2.8-1.5,4.4l1.6,8.2c0.3,1.5,1.3,2.8,2.7,3.4c0.4,0.2,0.9,0.3,1.3,0.4c-0.1,0.3-0.2,0.5-0.2,0.8
	c-0.3,1.3,0.1,2.7,0.9,3.8c0.9,1.2,2.3,1.9,3.8,1.9h1.1c2,0,3.8-1.3,4.5-3.1l0.4-1.2h0l0.4,1.2c0.5,1.2,1.4,2.2,2.6,2.7
	c0.1,0,0.1,0,0.2,0.1c0.2,0.2,0.8,0.2,1.1,0.3c0.3,0.1,0.6,0.1,0.9,0.1v-0.1h0.9c1.5,0,2.9-0.7,3.8-1.9c0.8-1.1,1.2-2.5,0.9-3.8
	c-0.1-0.3-0.1-0.6-0.2-0.8c0.4-0.1,0.9-0.2,1.3-0.4c1.4-0.6,2.4-1.9,2.7-3.4l1.6-8.2C233.8,76.2,233.2,74.6,232,73.4z M206.5,87.6
	c-0.8-0.4-1.4-1.1-1.5-1.9l-1.6-8.2c-0.2-0.9,0.1-1.9,0.8-2.5c0.7-0.6,1.7-0.9,2.6-0.6c3.3,1,6.1,3.1,8,5.9
	c-0.1,0.3-0.2,0.7-0.2,1.1v2.8l-5.6,3.3c0,0,0,0,0,0C208.2,87.9,207.3,88,206.5,87.6z M215,92.5c-0.4,1.1-1.4,1.8-2.6,1.8h-1.1
	c-0.8,0-1.6-0.4-2.2-1.1c-0.5-0.6-0.7-1.4-0.5-2.2c0.1-0.8,0.6-1.4,1.3-1.8c0,0,0,0,0,0l4.6-2.7v2.7c0,0.8,0.3,1.5,0.9,2L215,92.5z
	 M218.1,89.2c0,0.4-0.3,0.8-0.8,0.8s-0.8-0.3-0.8-0.8v-7.9c0-0.4,0.3-0.8,0.8-0.8s0.8,0.3,0.8,0.8V89.2z M225.6,93.2
	c-0.5,0.7-1.3,1.1-2.2,1.1h-1.1c-1.1,0-2.2-0.7-2.6-1.8l-0.4-1.2c0.5-0.5,0.9-1.2,0.9-2v-2.7l4.6,2.7c0,0,0,0,0,0
	c0.7,0.4,1.1,1.1,1.3,1.8C226.2,91.8,226,92.6,225.6,93.2z M231.4,77.5l-1.6,8.2c-0.2,0.9-0.7,1.6-1.5,1.9c-0.8,0.4-1.7,0.3-2.5-0.1
	c0,0,0,0,0,0l-5.6-3.3v-2.8c0-0.4-0.1-0.7-0.2-1.1c1.9-2.8,4.8-4.9,8-5.9c0.9-0.3,1.9-0.1,2.6,0.6C231.3,75.6,231.6,76.5,231.4,77.5
	z"/>
<path class="st1" d="M232,139.7c-1.3-1.1-3-1.5-4.6-1c-3.6,1.1-6.7,3.3-8.9,6.4c0,0-0.1,0-0.1,0c0.1-1.3,0.8-2.5,1.8-3.3
	c0.5-0.3,0.6-1,0.2-1.4c-0.3-0.5-1-0.6-1.4-0.2c-0.7,0.5-1.3,1.1-1.7,1.8c-0.4-0.7-1-1.3-1.7-1.8c-0.5-0.3-1.1-0.2-1.4,0.2
	c-0.3,0.5-0.2,1.1,0.2,1.4c1.1,0.8,1.7,2,1.9,3.3c0,0-0.1,0-0.1,0c-2.2-3-5.3-5.3-8.9-6.4c-1.6-0.5-3.3-0.1-4.6,1
	c-1.3,1.1-1.8,2.8-1.5,4.4l1.6,8.2c0.3,1.5,1.3,2.8,2.7,3.4c0.4,0.2,0.9,0.3,1.3,0.4c-0.1,0.3-0.2,0.5-0.2,0.8
	c-0.3,1.3,0.1,2.7,0.9,3.8c0.9,1.2,2.3,1.9,3.8,1.9h1.1c2,0,3.8-1.3,4.5-3.1l0.4-1.2h0l0.4,1.2c0.5,1.2,1.4,2.2,2.6,2.7
	c0.1,0,0.1,0,0.2,0.1c0.2,0.2,0.8,0.2,1.1,0.3c0.3,0.1,0.6,0.1,0.9,0.1v-0.1h0.9c1.5,0,2.9-0.7,3.8-1.9c0.8-1.1,1.2-2.5,0.9-3.8
	c-0.1-0.3-0.1-0.6-0.2-0.8c0.4-0.1,0.9-0.2,1.3-0.4c1.4-0.6,2.4-1.9,2.7-3.4l1.6-8.2C233.8,142.5,233.2,140.8,232,139.7z
	 M206.5,153.9c-0.8-0.4-1.4-1.1-1.5-1.9l-1.6-8.2c-0.2-0.9,0.1-1.9,0.8-2.5c0.7-0.6,1.7-0.9,2.6-0.6c3.3,1,6.1,3.1,8,5.9
	c-0.1,0.3-0.2,0.7-0.2,1.1v2.8l-5.6,3.3c0,0,0,0,0,0C208.2,154.2,207.3,154.2,206.5,153.9z M215,158.8c-0.4,1.1-1.4,1.8-2.6,1.8
	h-1.1c-0.8,0-1.6-0.4-2.2-1.1c-0.5-0.6-0.7-1.4-0.5-2.2c0.1-0.8,0.6-1.4,1.3-1.8c0,0,0,0,0,0l4.6-2.7v2.7c0,0.8,0.3,1.5,0.9,2
	L215,158.8z M218.1,155.5c0,0.4-0.3,0.8-0.8,0.8s-0.8-0.3-0.8-0.8v-7.9c0-0.4,0.3-0.8,0.8-0.8s0.8,0.3,0.8,0.8V155.5z M225.6,159.5
	c-0.5,0.7-1.3,1.1-2.2,1.1h-1.1c-1.1,0-2.2-0.7-2.6-1.8l-0.4-1.2c0.5-0.5,0.9-1.2,0.9-2v-2.7l4.6,2.7c0,0,0,0,0,0
	c0.7,0.4,1.1,1.1,1.3,1.8C226.2,158.1,226,158.9,225.6,159.5z M231.4,143.8l-1.6,8.2c-0.2,0.9-0.7,1.6-1.5,1.9
	c-0.8,0.4-1.7,0.3-2.5-0.1c0,0,0,0,0,0l-5.6-3.3v-2.8c0-0.4-0.1-0.7-0.2-1.1c1.9-2.8,4.8-4.9,8-5.9c0.9-0.3,1.9-0.1,2.6,0.6
	C231.3,141.9,231.6,142.8,231.4,143.8z"/>
<path class="st1" d="M232,209.1c-1.3-1.1-3-1.5-4.6-1c-3.6,1.1-6.7,3.3-8.9,6.4c0,0-0.1,0-0.1,0c0.1-1.3,0.8-2.5,1.8-3.3
	c0.5-0.3,0.6-1,0.2-1.4c-0.3-0.5-1-0.6-1.4-0.2c-0.7,0.5-1.3,1.1-1.7,1.8c-0.4-0.7-1-1.3-1.7-1.8c-0.5-0.3-1.1-0.2-1.4,0.2
	c-0.3,0.5-0.2,1.1,0.2,1.4c1.1,0.8,1.7,2,1.9,3.3c0,0-0.1,0-0.1,0c-2.2-3-5.3-5.3-8.9-6.4c-1.6-0.5-3.3-0.1-4.6,1
	c-1.3,1.1-1.8,2.8-1.5,4.4l1.6,8.2c0.3,1.5,1.3,2.8,2.7,3.4c0.4,0.2,0.9,0.3,1.3,0.4c-0.1,0.3-0.2,0.5-0.2,0.8
	c-0.3,1.3,0.1,2.7,0.9,3.8c0.9,1.2,2.3,1.9,3.8,1.9h1.1c2,0,3.8-1.3,4.5-3.1l0.4-1.2h0l0.4,1.2c0.5,1.2,1.4,2.2,2.6,2.7
	c0.1,0,0.1,0,0.2,0.1c0.2,0.2,0.8,0.2,1.1,0.3c0.3,0.1,0.6,0.1,0.9,0.1V232h0.9c1.5,0,2.9-0.7,3.8-1.9c0.8-1.1,1.2-2.5,0.9-3.8
	c-0.1-0.3-0.1-0.6-0.2-0.8c0.4-0.1,0.9-0.2,1.3-0.4c1.4-0.6,2.4-1.9,2.7-3.4l1.6-8.2C233.8,211.9,233.2,210.2,232,209.1z
	 M206.5,223.2c-0.8-0.4-1.4-1.1-1.5-1.9l-1.6-8.2c-0.2-0.9,0.1-1.9,0.8-2.5c0.7-0.6,1.7-0.9,2.6-0.6c3.3,1,6.1,3.1,8,5.9
	c-0.1,0.3-0.2,0.7-0.2,1.1v2.8l-5.6,3.3c0,0,0,0,0,0C208.2,223.6,207.3,223.6,206.5,223.2z M215,228.1c-0.4,1.1-1.4,1.8-2.6,1.8
	h-1.1c-0.8,0-1.6-0.4-2.2-1.1c-0.5-0.6-0.7-1.4-0.5-2.2c0.1-0.8,0.6-1.4,1.3-1.8c0,0,0,0,0,0l4.6-2.7v2.7c0,0.8,0.3,1.5,0.9,2
	L215,228.1z M218.1,224.9c0,0.4-0.3,0.8-0.8,0.8s-0.8-0.3-0.8-0.8V217c0-0.4,0.3-0.8,0.8-0.8s0.8,0.3,0.8,0.8V224.9z M225.6,228.9
	c-0.5,0.7-1.3,1.1-2.2,1.1h-1.1c-1.1,0-2.2-0.7-2.6-1.8l-0.4-1.2c0.5-0.5,0.9-1.2,0.9-2v-2.7l4.6,2.7c0,0,0,0,0,0
	c0.7,0.4,1.1,1.1,1.3,1.8C226.2,227.4,226,228.2,225.6,228.9z M231.4,213.1l-1.6,8.2c-0.2,0.9-0.7,1.6-1.5,1.9
	c-0.8,0.4-1.7,0.3-2.5-0.1c0,0,0,0,0,0l-5.6-3.3V217c0-0.4-0.1-0.7-0.2-1.1c1.9-2.8,4.8-4.9,8-5.9c0.9-0.3,1.9-0.1,2.6,0.6
	C231.3,211.2,231.6,212.2,231.4,213.1z"/>
<path class="st2" d="M243,22.2H130v-2.9c0-9-7.3-16.3-16.3-16.3H30.3C15,3,2.5,15.5,2.5,30.8v189.7c0,15.3,12.5,27.8,27.8,27.8H243
	c2.6,0,4.8-2.1,4.8-4.8V27C247.8,24.3,245.7,22.2,243,22.2z M30.3,12.6h83.4c3.7,0,6.7,3,6.7,6.7v174.9c-2-0.9-4.3-1.5-6.7-1.5H30.3
	c-7,0-13.3,2.6-18.2,6.8V30.8C12.1,20.8,20.3,12.6,30.3,12.6z M238.2,238.7H30.3c-10,0-18.2-8.2-18.2-18.2c0-10,8.2-18.2,18.2-18.2
	h83.4c3.7,0,6.7,3,6.7,6.7s-3,6.7-6.7,6.7H49.5c-2.6,0-4.8,2.1-4.8,4.8s2.1,4.8,4.8,4.8h64.2c9,0,16.3-7.3,16.3-16.3V31.7h108.3
	V238.7z"/>
<path class="st2" d="M30.5,215.7c-1.3,0-2.5,0.5-3.4,1.4c-0.9,0.9-1.4,2.1-1.4,3.4s0.5,2.5,1.4,3.4c0.9,0.9,2.1,1.4,3.4,1.4
	c1.3,0,2.5-0.5,3.4-1.4c0.9-0.9,1.4-2.1,1.4-3.4s-0.5-2.5-1.4-3.4C33,216.2,31.7,215.7,30.5,215.7z"/>
<g>
</g>
<g>
</g>
<g>
</g>
<g>
</g>
<g>
</g>
<g>
</g>
<g>
</g>
<g>
</g>
<g>
</g>
<g>
</g>
<g>
</g>
<g>
</g>
<g>
</g>
<g>
</g>
<g>
</g>
</svg>
